<?xml version="1.0" encoding="utf-8"?>
<!-- Generator: Adobe Illustrator 25.0.0, SVG Export Plug-In . SVG Version: 6.00 Build 0)  -->
<svg version="1.1" id="Layer_1" xmlns="http://www.w3.org/2000/svg" xmlns:xlink="http://www.w3.org/1999/xlink" x="0px" y="0px"
	 viewBox="0 0 611 590" style="enable-background:new 0 0 611 590;" xml:space="preserve">
<style type="text/css">
	.st0{fill:#007EFF;}
	.st1{fill:#070DE9;}
	.st2{fill:#E9D100;}
	.st3{fill:#FFFFFF;}
	.st4{fill:#FFE301;}
	.st5{fill:#FFE325;}
	.st6{fill:#FFE39D;}
	.st7{fill:#0000FF;}
	.st8{fill:#FFFECA;}
	.st9{fill:#FFFE90;}
	.st10{fill:#FCD6BF;}
</style>
<path class="st0" d="M500.3,263.6c17.1,14.8,48.6,13.9,64.9-1.9c39.1-38-8.8-163.3-37-162.4C499.9,100.2,459.1,228,500.3,263.6z"/>
<path class="st0" d="M102,336.1c17.1,14.8,48.6,13.9,64.9-1.9c39.1-38-8.8-163.3-37-162.4C101.6,172.8,60.8,300.5,102,336.1z"/>
<path class="st1" d="M152.7,203.1l-4.1-13.2c-0.4-0.3-2.3,0.1-6.2,3.8C142.6,198.8,149.4,202.1,152.7,203.1z"/>
<path class="st2" d="M152.7,203l-4.3-13.2c0.4-0.7,7.7-1,7.5-0.1C156.1,198.3,153.8,202.1,152.7,203z"/>
<path class="st3" d="M147.5,194l-0.4-1.9c-0.7,0.2-2.3,0.9-2.8,1.7c-0.5,1,6.6,8.1,8,7.1c1.1-0.8,1.9-5.8,2.1-8.2l0.4-0.1l-0.6-1.9
	l-3,0.1l0.6,1.9c0.3-0.1,0.5-0.1,0.8,0c0.2,0.1-0.2,5.8-1.3,5.7c-0.8-0.1-2.7-1.5-3.5-2.2l-0.8-2L147.5,194z"/>
<path class="st4" d="M472,336.4v165.8c1.6,1.6,3.4,2.5,8.2,2.5c4.8,0,5.9-2,6.2-2.4c0-0.9,0-165.8,0-165.8H472z"/>
<path class="st4" d="M545.7,308v165.8c1.6,1.6,3.4,2.5,8.2,2.5s5.9-2,6.2-2.4c0-0.9,0-165.8,0-165.8H545.7z"/>
<path class="st4" d="M531.4,362.7v165.8c1.6,1.6,3.4,2.5,8.2,2.5c4.8,0,5.9-2,6.2-2.4c0-0.9,0-165.8,0-165.8H531.4z"/>
<path class="st4" d="M592,332.2V498c1.6,1.6,3.4,2.5,8.2,2.5c4.8,0,5.9-2,6.2-2.4c0-0.9,0-165.8,0-165.8L592,332.2"/>
<path class="st5" d="M466.1,332.2V351c16.2,16.1,34.4,25.3,82.6,25.3s59.6-20.4,62.3-24.7c0-9.1-0.3-19.4-0.3-19.4H466.1z"/>
<path class="st6" d="M528.2,300.4c-19.6,1.8-42,6.7-58.3,23c-16.4,16.4,22.3,41.3,73.2,41.3s73.4-22.4,66.4-38.1
	C602.7,311.5,571,296.4,528.2,300.4z"/>
<path class="st7" d="M595.7,280.8h-2.2c0-6.2-4.1-66.6-19.2-119.3l2.1-0.6C591.7,213.8,595.7,274.5,595.7,280.8z"/>
<path class="st7" d="M480.3,280.9c-3.6-70.8-0.9-121.2,7.9-145.7c7.1-19.8,21.4-34.7,36.4-37.8c9.9-2.1,19.2,1.1,27,9.2l-1.6,1.5
	c-7.2-7.6-15.9-10.5-25-8.6c-14,3-28,17.6-34.8,36.4c-8.7,24.2-11.4,74.3-7.8,144.8L480.3,280.9"/>
<path class="st8" d="M493.6,41.2c-9.6,13.5-10.7,40.9,4.1,45.3c11.8,3.5,16.3,43.6,17.9,48.1c14.7-12.8,18.6-22.4,18.6-23.6
	c-2.4-12.6-5.9-33.4-5.9-50.5C528.3,35.1,512.3,14.7,493.6,41.2"/>
<path class="st8" d="M149.8,94c9.6,13.5,10.7,40.9-4.1,45.3c-11.8,3.5-16.3,43.6-17.9,48.1c-14.7-12.8-18.6-22.4-18.6-23.6
	c2.4-12.6,5.9-33.4,5.9-50.5C115.1,87.9,131,67.5,149.8,94"/>
<path class="st8" d="M439.1,504.1c-1.4,3.9-4.2,13.9-4.2,13.9c-6,0-16.4-2.8-16.4-2.8c0.9-7,2.8-16.2,2.8-16.2L439.1,504.1z"/>
<path class="st7" d="M440.3,512.9l-23.1-7.5l0.2-1c0.2-1,18.1-95.6,33.1-140.1c15.3-45.1,34.9-47.3,35.7-47.3l0.2,2.2
	c0,0-4.8,0.5-11.2,6.4c-6,5.4-14.9,16.7-22.6,39.5c-14.2,41.9-30.9,128.7-32.9,138.8l19.2,6.2c3.5-10.3,32.6-95.4,40.6-127
	c4.1-15.9,25.7-22.5,48.6-29.4c13.8-4.2,28.1-8.5,39.7-15.1c13-7.4,20.5-16.6,23-28.3l2.2,0.5c-5.8,27.3-36.8,36.7-64.2,45
	c-22.3,6.7-43.3,13.1-47.1,27.9c-8.6,33.5-40.7,127.3-41,128.2L440.3,512.9"/>
<path class="st7" d="M417.5,480.5c-0.1-0.3-10.5-26.5-19.9-54.4c-12.7-37.7-17.5-60.5-14.4-67.7c5.3-12.1,27.5-35.7,47.2-53.7
	c9.5-8.6,41-36.6,50.6-33.9c39.7,11.3,59,9.9,76,8.7c9.6-0.7,18.6-1.3,30.1,0.5l-0.3,2.2c-11.2-1.8-20.1-1.1-29.5-0.4
	c-17.2,1.2-36.7,2.6-76.8-8.8c-5.4-1.6-24.9,11.9-48.5,33.4c-23.1,21.1-42.3,42.9-46.7,53c-2,4.6-1.1,19.8,14.5,66.1
	c9.4,27.9,19.7,54.1,19.8,54.3L417.5,480.5"/>
<path class="st7" d="M435.2,420.7c-2.4-14.6-12.6-44.2-12.7-44.5l2.1-0.7c0.1,0.3,10.4,30.1,12.8,44.9L435.2,420.7z"/>
<path class="st9" d="M271.3,388.8c7.5,8.6,15.8,17.7,18,22.9c7.1,16.3-31.6,114.4-38.1,130.9c-3-5-11.3-33.8-11.3-33.8
	C244.2,481.2,255,445,255,445c-10.1-15.6-18.4-27.4-18.4-27.4C245.9,399.4,268.6,387.2,271.3,388.8"/>
<path class="st7" d="M521.2,48.7c0.6,0,1.1,0.2,1.6,0.5c2.4,1.4,3.3,7.8,4.6,18.3c0.5,4,1.1,9.4,1.8,11.3c1.2-2.3,3.6-9.6,5.3-18.8
	c1.3-7.2,3.1-20.7,0.2-29.3c-1.6-4.7-4.2-7.2-8.1-7.6l-0.7-0.1l-0.2-0.7c-1.5-4.9-5.1-4.7-12.3-3.9c-8.2,0.9-19.5,2.2-31.3-8.2
	c-11.3-9.9-39.6-11.3-51,0.6c-5.3,5.5-4.4,12.4,2.7,19.9c20.6,21.6,56.3,13.5,69.7,10.4c2.8-0.6,4.5-1,5.4-1c3.5,0,4.1,5.4,4.6,10.6
	c0.2,2.1,0.4,4.1,0.8,5.6c0.3,1.4,0.7,1.7,0.8,1.7c0.5-0.1,1.4-2.4,1.8-3.5c0.9-2.4,1.8-4.8,3.5-5.4
	C520.6,48.7,520.9,48.7,521.2,48.7L521.2,48.7z M529.2,81.4c-0.2,0-0.5-0.1-0.7-0.2c-1.6-0.8-2.1-4.4-3.2-13.6
	c-0.7-5.9-1.9-15.7-3.5-16.6c-0.4-0.2-0.6-0.2-0.7-0.2c-0.8,0.3-1.6,2.5-2.2,4.1c-0.9,2.6-1.8,5-3.8,5c-2.9,0-3.3-4.3-3.8-9.3
	c-0.3-3.4-0.8-8.6-2.4-8.6c-0.6,0-2.6,0.4-4.9,1c-6.5,1.5-18.2,4.2-30.9,4.2c-14.1,0-29.6-3.3-40.9-15.2
	c-10.7-11.3-6.3-19.2-2.7-22.9C440-1.7,469.2-4.1,483.6,8.5c11,9.7,21.3,8.5,29.6,7.6c6.5-0.7,12.1-1.3,14.4,4.8
	c5.2,0.9,8.6,4.9,10.1,12c2.1,9.8,0,22.8-1.4,29.7c-1.3,6.5-4.2,17.4-6.3,18.5C529.8,81.4,529.5,81.4,529.2,81.4"/>
<path class="st7" d="M181,108.8l-1.9-1.1c2.5-4.5,1.8-8.7-2-12.4c-7.9-7.7-28.6-11.3-40.7-4.4l-1.1-1.9c5.8-3.4,14.2-4.7,23-3.6
	c8.4,1,16,4.1,20.3,8.3C183.1,98.1,183.9,103.4,181,108.8"/>
<path class="st4" d="M337.6,278.5v284.6c3.1,3.1,6.6,4.8,15.8,4.8c9.2,0,11.4-3.9,11.9-4.7c0-1.7-0.1-284.7-0.1-284.7H337.6"/>
<path class="st4" d="M211.3,251.6V288c31.3,31.2,66.5,49,159.8,49s115.2-39.4,120.4-47.8c0-17.6-0.5-37.5-0.5-37.5H211.3z"/>
<path class="st6" d="M331.5,190.1c-37.9,3.5-81.1,12.9-112.8,44.5c-31.6,31.6,43.1,79.9,141.5,79.9s141.9-43.3,128.4-73.7
	C475.6,211.5,414.2,182.3,331.5,190.1"/>
<path class="st7" d="M274,230.8c-14.2,0-27.5,2.6-37.5,7.4c-9.7,4.6-15.1,10.7-15.1,17.1c0,6.4,5.4,12.4,15.1,17.1
	c10,4.8,23.3,7.4,37.5,7.4c14.2,0,27.5-2.6,37.5-7.4c9.7-4.6,15.1-10.7,15.1-17.1c0-6.4-5.4-12.4-15.1-17.1
	C301.5,233.4,288.2,230.8,274,230.8z M274,281.9c-14.5,0-28.2-2.7-38.5-7.6c-10.6-5-16.4-11.8-16.4-19.1s5.8-14.1,16.4-19.1
	c10.3-4.9,24-7.6,38.5-7.6c14.5,0,28.2,2.7,38.5,7.6c10.6,5,16.4,11.8,16.4,19.1s-5.8,14-16.4,19.1
	C302.2,279.2,288.5,281.9,274,281.9z"/>
<path class="st7" d="M292.9,259.7c6.2,0,8-12,2.8-12s-8.9-8.7-16.1-6.8c-7.3,1.9-12.7,3.2-15.1,3.2c-2.4,0-4.9-2.5-8.5,1
	c-3.6,3.6-5.4,3.8-7.8,6.2c-2.4,2.4-11.8,0.9-5.7,7.1c6.1,6.1-1.7,6.4,11.6,8.3c13.2,1.9,16.9,3.1,22.2,0
	C281.7,263.6,290.1,259.7,292.9,259.7"/>
<path class="st7" d="M310.3,253.5c4,0,5.2,7.8,1.8,7.8c-3.4,0-5.8,5.6-10.5,4.4c-4.7-1.2-8.2-2-9.7-2c-1.5,0-3.2,1.7-5.5-0.7
	c-2.3-2.3-3.5-2.5-5.1-4c-1.5-1.5-7.7-0.6-3.7-4.6c4-4-1.1-4.1,7.5-5.4c8.6-1.2,11-2,14.4,0C303,251,308.5,253.6,310.3,253.5"/>
<path class="st7" d="M391.4,209.3c-12.1,0-23.5,2.2-32.1,6.3c-8.3,3.9-12.9,9.1-12.9,14.5c0,5.4,4.6,10.6,12.9,14.5
	c8.6,4.1,20,6.3,32.1,6.3c12.1,0,23.5-2.2,32.1-6.3c8.3-3.9,12.9-9.1,12.9-14.5c0-5.4-4.6-10.6-12.9-14.5
	C415,211.6,403.6,209.3,391.4,209.3z M391.4,253.2c-12.5,0-24.2-2.3-33-6.5c-9.1-4.3-14.1-10.2-14.1-16.5c0-6.3,5-12.2,14.1-16.5
	c8.8-4.2,20.6-6.5,33-6.5c12.5,0,24.2,2.3,33,6.5c9.1,4.3,14.1,10.2,14.1,16.5s-5,12.2-14.1,16.5
	C415.6,250.9,403.9,253.2,391.4,253.2z"/>
<path class="st7" d="M389.5,219.5c-6.2,0-12,1.1-16.3,3.2c-4.2,2-6.5,4.6-6.5,7.4c0,2.8,2.3,5.4,6.5,7.4c4.4,2.1,10.2,3.2,16.3,3.2
	s12-1.1,16.3-3.2c4.2-2,6.5-4.6,6.5-7.4c0-2.8-2.3-5.4-6.5-7.4C401.5,220.6,395.7,219.5,389.5,219.5z M389.5,241.9
	c-6.3,0-12.3-1.2-16.8-3.3c-4.6-2.2-7.2-5.2-7.2-8.4c0-3.2,2.6-6.2,7.2-8.4c4.5-2.1,10.5-3.3,16.8-3.3c6.3,0,12.3,1.2,16.8,3.3
	c4.6,2.2,7.2,5.2,7.2,8.4c0,3.2-2.6,6.2-7.2,8.4C401.8,240.7,395.9,241.9,389.5,241.9z"/>
<path class="st9" d="M482.8,246.4c-2.3,3.9-18.1,5.6-23.7,0s-4.1-7.7-8.5-12.7c-1.7-1-26.4-31.9-27.5-36.9c-1.1-5,22.3-35.6,46-54.7
	c0,0,7.8,16.1,7.8,22.3c-4.9,2.8-17.5,19.3-24.8,32.8c0,0,9.2,18.6,16.1,30.5c2.3,2.3,9.4-0.6,11.8,0.8c2.4,1.4-4.2,5.5-5.2,6.1
	C473.7,235.2,485.2,242.5,482.8,246.4"/>
<path class="st4" d="M218.5,394.3v165.8c-1.6,1.6-3.4,2.5-8.2,2.5c-4.8,0-5.9-2-6.2-2.4c0-0.9,0-165.8,0-165.8H218.5z"/>
<path class="st4" d="M144.8,366v165.8c-1.6,1.6-3.4,2.5-8.2,2.5s-5.9-2-6.2-2.4c0-0.9,0-165.8,0-165.8H144.8z"/>
<path class="st4" d="M159.1,420.6v165.8c-1.6,1.6-3.4,2.5-8.2,2.5c-4.8,0-5.9-2-6.2-2.4c0-0.9,0-165.8,0-165.8H159.1z"/>
<path class="st4" d="M98.6,390.2V556c-1.6,1.6-3.4,2.5-8.2,2.5c-4.8,0-5.9-2-6.2-2.4c0-0.9,0-165.8,0-165.8H98.6z"/>
<path class="st5" d="M224.4,390.2V409c-16.2,16.2-34.4,25.3-82.6,25.3c-48.2,0-59.6-20.4-62.3-24.7c0-9.1,0.3-19.4,0.3-19.4H224.4z"
	/>
<path class="st6" d="M162.3,358.3c19.6,1.8,42,6.7,58.3,23c16.4,16.4-22.3,41.3-73.2,41.3c-50.9,0-73.4-22.4-66.4-38.1
	C87.8,369.4,119.5,354.3,162.3,358.3"/>
<path class="st7" d="M267.6,590c-9.8,0-15.4-0.4-26.4-7.9c-0.1-0.1-0.2-0.1-0.2-0.1c-0.2,0.6-0.3,1.3-0.4,1.9
	c-0.3,1.9-0.7,4.2-2.3,5.8l-0.3,0.3h-0.5c-2.2,0-4.6-0.4-6.7-0.8c-1.2-0.3-2.5-0.4-3.8-0.5c-0.3,0-1.1-0.1-1.5-1.4
	c-0.7-2.6,0.3-11.5,1.8-18.5c1.4-7.1,3.9-16,7.4-18l1.1,1.9c-2.2,1.2-4.7,7.8-6.5,17.2c-1.6,8.1-2.1,14.9-1.8,16.7
	c1,0.1,2.2,0.3,3.5,0.5c1.9,0.4,3.9,0.7,5.8,0.8c0.8-1.1,1.1-2.8,1.4-4.3c0.3-1.7,0.5-3.2,1.7-3.7c1-0.4,2,0.2,2.4,0.5
	c10.5,7.2,15.9,7.5,25.2,7.5c4.8,0,17.1-1.7,27.9-3.8c15.8-3.1,21-5.6,21.7-6.7c-1.1-1.3-9.6-2.8-17.2-4.1
	c-13.5-2.3-32-5.5-47.3-12.1l0.9-2c15.2,6.5,33.5,9.7,46.8,12c12.2,2.1,17.6,3.1,18.8,5.3c0.1,0.3,0.2,0.6,0.2,0.9
	c0,0.3,0,0.6-0.2,0.9c-1.7,3.8-18,7-23.4,8.1C285,588.3,272.5,590,267.6,590"/>
<path class="st0" d="M244.4,543.9l-12.2-8.4c-5,1.9-12.3,25.3-10.6,25.5c1.6,0.3,4.8,1.8,7.6,2.3c2.5-1.8,2.1-7.2,4.2-5.2
	c7.1,6.8,11.2,7.7,18.1,8.9c7,1.2,36.8,1.3,38.9-2C292.6,561.8,263.8,556.4,244.4,543.9z"/>
<path class="st0" d="M418.4,511.5l17.6,3.6c3.6,3.9-0.4,28.1-2,27.6c-1.6-0.5-5.1-0.5-7.8-1.4c-1.4-2.7-14.9-4.6-21.6-6.7
	c-6.8-2.1-33.4-15.4-33.8-19.3C370.4,511.4,395.6,513.9,418.4,511.5"/>
<path class="st8" d="M255.1,579.2c-13.3-1.5-17.8-11.6-21.2-14.9c0,0-0.1-0.3-0.3-0.8c-2.9-8.4-26.4-77.4-37.4-115l29.1-21.8
	c13.9,48.2,29.7,130.8,29.7,130.8c3.3,11.3,31.5,16.2,35.2,16.2C293.8,573.6,268.3,580.7,255.1,579.2"/>
<path class="st10" d="M233.9,564.3c-0.1-0.1-0.2-0.2-0.3-0.4c-0.1-0.1-0.1-0.3,0-0.5C233.8,564,233.9,564.3,233.9,564.3z"/>
<path class="st7" d="M307.4,212c-0.5-0.3-1-0.4-1.6-0.3c-0.5,0.1-1,0.4-1.3,0.9l-23.8,31.6h5l22-29.2c0.3-0.4,0.5-1,0.5-1.5
	C308.1,212.9,307.9,212.3,307.4,212z"/>
<path class="st8" d="M258.3,254.1c3.9,0,9-13.5,19.5-15.4c10.5-1.9,13.8,1.4,15.9,3.5c2.1,2.1-0.3,26.8-6.9,29.1
	c-6.7,2.3-23.7-1.1-25.6,0L258.3,254.1"/>
<path class="st9" d="M232.3,223.9c5.6,0,12.3-7.7,21.4-7.7c9,0,12.6,10.5,15.8,16c5,8.6-9.3,10.5-13.1,10.5
	c-3.7,0-19.2-4.5-24.1-4.5C232.8,235.1,232.3,223.9,232.3,223.9z"/>
<path class="st7" d="M276.6,387.8c-13.1,0-25.6,14.9-38.8,30.7c-14.9,17.8-30.3,36.2-46.4,31.5c-12.8-22.3-35.3-32.2-57.1-41.7
	c-23.7-10.3-46.2-20.1-51.7-45.2c-3.7-17-1.6-31.9,0.4-46.4c0.8-5.6,1.5-10.9,1.9-16.3c9.5-1.8,18.2-4.8,25.1-8.8
	c13.2-7.6,19.8-18.3,19.4-31c9.7,6.9,21,11.9,31.8,15.5c3.4,12,12,35.6,29,48.2c-38.2,10.6-57.1,9.3-73.8,8.1
	c-9.6-0.7-18.6-1.3-30,0.5l0.3,2.2c11.2-1.8,20.1-1.1,29.5-0.4c17.2,1.2,36.7,2.6,76.8-8.8c4.1-1.2,18.5,6.8,36.5,20.3
	c17.4,13,35.2,28.8,47.1,41.7H276.6z M61.6,300.2c-18-0.2-34.6-4.4-45.5-11.5c-10-6.5-14.8-15.2-13.8-25.1
	c2.5-23.8,23.3-36.7,43.4-49.1c21.3-13.2,41.5-25.6,35.7-49.9c-3.7-15.6-1.4-35.1,6.5-54.7c6.8-17.1,17.2-32.2,27-39.6
	c4.1-3.1,10-6.1,14.8-3.3l0.6,0.3l0.6-0.3c16.8-9.7,36-10.7,50-2.6c11.5,6.7,17.9,18.5,17.9,33.5c0,21.7-5.2,43.7-10.2,65
	c-3.5,15-6.8,29.1-8.2,42.4c-10.1-4.9-19.4-11.2-27.8-18.7c-7.1-11.4-15.2-24.4-18.5-41.3l-2.2,0.4c3.4,17.4,11.6,30.5,18.8,42.1
	c9,14.4,16.3,26.1,11.1,40.5c-0.8-0.7-1.6-1.4-2.3-2.1l-1.6,1.6c1,1,2,1.9,3,2.7c-0.5,1.1-1.1,2.2-1.7,3.4
	c-7.9-6.2-15-13.3-21.3-21.2c0.4-1,0.9-1.9,1.3-2.9c5.5-12.2,9.5-20.9-0.8-39.4c-12.5-22.3-9.7-42.7-7.6-57.7
	c1.1-8.1,2-14.5,0.5-19.5l-2.1,0.7c1.4,4.4,0.5,11-0.6,18.5c-2.1,15.3-5,36.2,7.8,59.1c9.8,17.5,6.2,25.4,0.7,37.4
	c-5,11-11.3,24.8-9.9,51.2c0.8,15.3-9.5,24.6-18.3,29.6C97,296.6,79.7,300.4,61.6,300.2L61.6,300.2z M234.5,221.5
	c1.2,8,0.3,18.2-0.1,21.2h0c-6.9,0.8-19.9,2.2-34.2,0.7c-4.8-0.5-9.5-1.4-14.2-2.6c-0.5-1.3-1-2.7-1.4-4.1l-2.1,0.6
	c0.3,0.9,0.6,1.8,0.9,2.7c-7.6-2.4-14.2-5.8-19.7-10.2c5.2-13.5,0.1-24.8-7.2-37c17.5,14.1,36.8,21.2,50.5,24.6
	C220.6,220.8,231.3,221.4,234.5,221.5L234.5,221.5z M184.6,243c1,2.3,1.7,4.8,2.1,7.2c-5.1-2.1-10.1-4.7-14.8-7.6
	c-3.7-2.3-7.4-4.8-10.8-7.5c0.6-1.1,1.2-2.2,1.7-3.3c6,4.7,13.2,8.3,21.6,10.7C184.5,242.7,184.5,242.9,184.6,243L184.6,243z
	 M258.6,248.8c3,7.5,3.6,20.7,3.7,23.9c-21.6,9.6-43.7,9-57,8.6c-2.1-0.1-3.9-0.1-5.5-0.1c-6.9,0-21.2-2-36.7-7
	c-0.1-0.5-0.3-1-0.4-1.4l-2.1,0.6v0c-10.7-3.7-21.8-8.8-31.2-15.7c-0.7-20.7,3.4-33.1,7.5-42.8c19.6,24.2,49.5,42.2,70.3,42.2
	C226.1,257.1,253.2,250.2,258.6,248.8L258.6,248.8z M280.4,388.4c-12-13.4-30.9-30.3-49.4-44.1c-9-6.7-30.3-21.9-37.9-20.8
	c-16.8-11.5-25.5-34.2-29.2-46.7c15.2,4.8,29.1,6.6,36,6.6c1.5,0,3.3,0,5.4,0.1c2.9,0.1,6.1,0.2,9.7,0.2c13.4,0,31.3-1.3,48.9-9.3
	l0.7-0.3v-0.7c0-0.7-0.4-17.8-4.3-26.4l-0.4-0.9l-0.9,0.3c-0.3,0.1-31.1,8.5-51.7,8.5c-5.4,0-11.6-1.3-18.2-3.8
	c-0.3-2.7-1-5.3-1.9-7.9c4.2,1,8.6,1.8,12.9,2.3c4.5,0.5,9,0.7,13.5,0.7c8.9,0,16.4-0.8,21.2-1.4l1.8-0.2l0.1-0.9
	c0.1-0.6,1.7-13.7,0-23.6l-0.2-0.9h-0.9c-0.1,0-12-0.1-28.1-4.1c-8.5-2.2-16.9-5.1-24.8-8.8c1.3-13.4,4.7-27.8,8.2-43
	c5-21.4,10.2-43.5,10.2-65.5c0-15.7-6.7-28.3-19-35.4c-14.6-8.4-34.3-7.5-51.7,2.3c-4.5-2.3-10.3-1-16.7,3.8
	c-10.1,7.5-20.8,23.1-27.8,40.5c-8,20.1-10.4,40-6.6,56c2.4,10.3,0.1,19-7.4,27.2c-6.8,7.5-16.8,13.7-27.4,20.2
	c-10.1,6.2-20.5,12.6-28.7,20.6c-9.4,9.1-14.6,19-15.7,30.2c-1.1,10.8,4,20.2,14.8,27.2c11.2,7.3,28.2,11.6,46.6,11.8h1.6
	c6.6,0,13.1-0.5,19.6-1.6c-0.4,5.1-1.1,10.2-1.9,15.6c-2.1,14.7-4.2,29.8-0.4,47.2c5.7,26.2,28.7,36.2,52.9,46.8
	c21.6,9.4,44,19.2,56.3,41.1l0.2,0.4l0.4,0.1c2,0.7,4.2,1,6.3,1c15.2,0,29.3-16.8,42.9-33.1c13.8-16.5,26.8-32.1,39.8-29.6l3.2,0.6
	L280.4,388.4"/>
<path class="st7" d="M482.5,169.2h-9.9l-0.3-0.6c-0.4-0.8-9.9-18.7-9.9-26.6v-0.4l0.3-0.3c0.2-0.2,20-21,39.1-29.8l0.9,2
	c-17.5,8.1-35.5,26.4-38.1,29c0.3,6.8,7.7,21.4,9.4,24.5h8.6L482.5,169.2"/>
<path class="st7" d="M452.9,114.4l6.2-13.3l-1.2-0.6l-6.1,11.8l-1.8-0.9l5.6-12.1l-1.5-0.8l-6.1,11.8l-1.8-0.9l5.6-12.1l-1.5-0.8
	l-6.1,11.8l-1.8-0.9l5.6-12.1l-1.2-0.6l-6.7,13.1c-0.7,1.4-0.9,3-0.6,4.6c0.3,1.6,1.1,3,2.3,4L423.2,154c-0.3,0.5-0.3,1-0.2,1.6
	c0.2,0.5,0.5,1,1,1.2c0.5,0.2,1.1,0.2,1.6,0c0.5-0.2,0.9-0.6,1.1-1.1l18.3-37.4c1.6,0.3,3.2,0,4.6-0.7
	C451.1,116.9,452.2,115.8,452.9,114.4"/>
<path class="st7" d="M449.9,87.9c-5.3,1.1-3.5-0.5-11.6,2.4c-8,3-7.6,6.4-0.9,8.7c6.8,2.3,13.7,0.1,17.6,4c3.9,3.9,6.1,5.7,11.3,4.3
	c5.2-1.4,3.9-12.8-2.9-14.6C456.6,91,461.4,85.4,449.9,87.9z"/>
<path class="st8" d="M548.3,206.6c-18.9,14.1-85.8,7.9-123-41.2c-1.8-2.3-12.2-10.4-13.1-14.1c-0.9-3.7,8.2-11.6,13.1-13.4
	c5-1.8,14.7,4.2,16.3,7.2c1.5,3,1.2,7,3.2,9.1c36.5,40,88.1,33.2,89.4,29.8c1.3-3.3,4.6-21.2,4.6-21.2l26.7,6
	C565.5,169,567.1,192.5,548.3,206.6"/>
<path class="st7" d="M535.7,165.7l32.6,9.8c7.8-11.7,9.7-31.5,4.5-46.5c-2.6-7.4-8.1-16.9-19.6-20.2c-3.5-1-6.7-0.4-9.4,1.9
	C535.7,117.8,532.5,139.8,535.7,165.7z M569.2,178.1l-35.5-10.7l-0.1-0.7c-3.6-27.3-0.1-49.9,8.8-57.5c3.3-2.8,7.1-3.6,11.4-2.4
	c6.8,2,16,7.3,21,21.6c5.6,15.9,3.4,37-5.2,49.1L569.2,178.1"/>
<path class="st7" d="M332.7,267.2v1.2c0,3.4,1.3,6.6,3.7,8.9c2.4,2.4,5.6,3.7,8.9,3.7c3.4,0,6.6-1.3,8.9-3.7
	c2.4-2.4,3.7-5.6,3.7-8.9v-1.2H332.7z"/>
<path class="st0" d="M358,267.2c0,2.6-5.7,4.7-12.7,4.7s-12.6-2.1-12.6-4.7c0-2.6,5.7-4.6,12.6-4.6S358,264.7,358,267.2z"/>
<path class="st7" d="M345.4,282.1c-3.6,0-7.1-1.5-9.7-4c-2.6-2.6-4-6.1-4-9.7v-9.1h2.2v9.1c0.1,3,1.3,5.9,3.5,8
	c2.2,2.1,5.1,3.3,8.1,3.3c3,0,5.9-1.2,8.1-3.3c2.2-2.1,3.4-5,3.5-8v-9.1h2.2v9.1c0,3.6-1.5,7.1-4,9.7
	C352.5,280.7,349,282.1,345.4,282.1z"/>
<path class="st7" d="M345.4,255.7c-7,0-11.5,2.1-11.5,3.5c0,1.4,4.5,3.5,11.5,3.5s11.6-2.1,11.6-3.5
	C356.9,257.8,352.4,255.7,345.4,255.7z M345.4,265c-9,0-13.8-2.9-13.8-5.8c0-2.9,4.7-5.8,13.8-5.8c9,0,13.8,2.9,13.8,5.8
	C359.1,262.1,354.4,265,345.4,265z"/>
<path class="st7" d="M346.5,296.5h-2.2V281h2.2V296.5z"/>
<path class="st7" d="M351.7,297.6H339v-2.2h12.7L351.7,297.6"/>
<path class="st7" d="M345,181.5v1.1c0,3.1,1.2,6,3.4,8.2c2.2,2.2,5.1,3.4,8.2,3.4c3.1,0,6-1.2,8.2-3.4c2.2-2.2,3.4-5.1,3.4-8.2v-1.1
	H345z"/>
<path class="st0" d="M368.1,181.5c0,2.3-5.2,4.2-11.6,4.2s-11.6-1.9-11.6-4.2c0-2.4,5.2-4.2,11.6-4.2
	C362.9,177.3,368.1,179.2,368.1,181.5z"/>
<path class="st7" d="M356.6,195.2c-3.4,0-6.6-1.3-8.9-3.7c-2.4-2.4-3.7-5.6-3.7-8.9v-8.4h2.2v8.4c0,2.7,1.2,5.3,3.1,7.3
	c2,1.9,4.6,3,7.3,3c2.7,0,5.4-1.1,7.3-3c2-1.9,3.1-4.5,3.1-7.3v-8.4h2.2v8.4c0,3.4-1.3,6.6-3.7,8.9
	C363.1,193.9,359.9,195.2,356.6,195.2z"/>
<path class="st7" d="M356.6,171.1c-6.3,0-10.5,1.9-10.5,3.1c0,1.3,4.2,3.1,10.5,3.1c6.3,0,10.5-1.9,10.5-3.1
	C367,173,362.9,171.1,356.6,171.1z M356.6,179.6c-6.3,0-12.7-1.8-12.7-5.3s6.4-5.4,12.7-5.4s12.7,1.8,12.7,5.4
	S362.9,179.6,356.6,179.6z"/>
<path class="st7" d="M357.7,208.2h-2.2v-14.1h2.2V208.2z"/>
<path class="st7" d="M362.4,209.3h-11.6v-2.2h11.6V209.3z"/>
<path class="st2" d="M503.3,156.8l-0.2-13.9c0.6-0.6,7.6,1.4,7.2,2.1C508,153.4,504.7,156.3,503.3,156.8z"/>
<path class="st1" d="M503.3,156.9v-13.9c-0.3-0.4-2.2-0.6-7,1.8C494.9,149.8,500.4,155,503.3,156.9z"/>
<path class="st3" d="M501,146.7l0.2-1.9c-0.8,0-2.5,0.2-3.1,0.8c-0.8,0.8,3.9,9.8,5.5,9.2c1.2-0.5,3.5-5,4.5-7.2h0.4v-1.9l-2.9-0.8
	v1.9c0.3,0,0.5,0.1,0.8,0.2c0.2,0.2-2,5.5-2.9,5.1c-0.8-0.3-2.1-2.2-2.7-3.1l-0.2-2.1H501z"/>
<path class="st2" d="M320.5,147.7l-27.4-98.5c3.1-5.3,57-4.7,55.7,1.7C347.6,114.4,329.5,141.9,320.5,147.7z"/>
<path class="st1" d="M321,148.6l-26-98.8c-3.1-2.2-16.7-0.1-46.8,25.7C247.5,113.8,296.5,140.2,321,148.6z"/>
<path class="st3" d="M285.5,80.4l-2.3-14.3c-5.6,1.5-17.6,5.8-20.9,11.5c-4.1,7.1,46.3,62.4,56.4,55.3c8.1-5.7,15.7-42.4,18.5-60.1
	L340,72l-3.7-13.9L313.9,58l3.7,13.9c1.4-0.4,4.5-0.9,6-0.1c1.8,1-3.7,42.7-11.4,41.8c-6.2-0.8-19.5-11.8-25.4-17.2l-5.4-15
	L285.5,80.4z"/>
</svg>
