<svg width="532" height="271" viewBox="0 0 532 271" fill="none" xmlns="http://www.w3.org/2000/svg">
<rect y="191" width="532" height="18" fill="#FAFF00"/>
<path d="M60.28 88.56C56.1733 88.56 52.4933 87.8933 49.24 86.56C45.9867 85.2267 43.3733 83.2533 41.4 80.64C39.48 78.0267 38.4667 74.88 38.36 71.2H52.92C53.1333 73.28 53.8533 74.88 55.08 76C56.3067 77.0667 57.9067 77.6 59.88 77.6C61.9067 77.6 63.5067 77.1467 64.68 76.24C65.8533 75.28 66.44 73.9733 66.44 72.32C66.44 70.9333 65.96 69.7867 65 68.88C64.0933 67.9733 62.9467 67.2267 61.56 66.64C60.2267 66.0533 58.3067 65.3867 55.8 64.64C52.1733 63.52 49.2133 62.4 46.92 61.28C44.6267 60.16 42.6533 58.5067 41 56.32C39.3467 54.1333 38.52 51.28 38.52 47.76C38.52 42.5333 40.4133 38.4533 44.2 35.52C47.9867 32.5333 52.92 31.04 59 31.04C65.1867 31.04 70.1733 32.5333 73.96 35.52C77.7467 38.4533 79.7733 42.56 80.04 47.84H65.24C65.1333 46.0267 64.4667 44.6133 63.24 43.6C62.0133 42.5333 60.44 42 58.52 42C56.8667 42 55.5333 42.4533 54.52 43.36C53.5067 44.2133 53 45.4667 53 47.12C53 48.9333 53.8533 50.3467 55.56 51.36C57.2667 52.3733 59.9333 53.4667 63.56 54.64C67.1867 55.8667 70.12 57.04 72.36 58.16C74.6533 59.28 76.6267 60.9067 78.28 63.04C79.9333 65.1733 80.76 67.92 80.76 71.28C80.76 74.48 79.9333 77.3867 78.28 80C76.68 82.6133 74.3333 84.6933 71.24 86.24C68.1467 87.7867 64.4933 88.56 60.28 88.56ZM117.819 42.88C122.939 42.88 127.045 44.5867 130.139 48C133.232 51.36 134.779 56 134.779 61.92V88H121.179V63.76C121.179 60.7733 120.405 58.4533 118.859 56.8C117.312 55.1467 115.232 54.32 112.619 54.32C110.005 54.32 107.925 55.1467 106.379 56.8C104.832 58.4533 104.059 60.7733 104.059 63.76V88H90.3788V28.8H104.059V49.36C105.445 47.3867 107.339 45.8133 109.739 44.64C112.139 43.4667 114.832 42.88 117.819 42.88ZM142.765 65.6C142.765 61.0133 143.618 56.9867 145.325 53.52C147.085 50.0533 149.458 47.3867 152.445 45.52C155.432 43.6533 158.765 42.72 162.445 42.72C165.592 42.72 168.338 43.36 170.685 44.64C173.085 45.92 174.925 47.6 176.205 49.68V43.36H189.885V88H176.205V81.68C174.872 83.76 173.005 85.44 170.605 86.72C168.258 88 165.512 88.64 162.365 88.64C158.738 88.64 155.432 87.7067 152.445 85.84C149.458 83.92 147.085 81.2267 145.325 77.76C143.618 74.24 142.765 70.1867 142.765 65.6ZM176.205 65.68C176.205 62.2667 175.245 59.5733 173.325 57.6C171.458 55.6267 169.165 54.64 166.445 54.64C163.725 54.64 161.405 55.6267 159.485 57.6C157.618 59.52 156.685 62.1867 156.685 65.6C156.685 69.0133 157.618 71.7333 159.485 73.76C161.405 75.7333 163.725 76.72 166.445 76.72C169.165 76.72 171.458 75.7333 173.325 73.76C175.245 71.7867 176.205 69.0933 176.205 65.68ZM214.662 50.8C216.262 48.3467 218.262 46.4267 220.662 45.04C223.062 43.6 225.729 42.88 228.662 42.88V57.36H224.902C221.489 57.36 218.929 58.1067 217.222 59.6C215.515 61.04 214.662 63.6 214.662 67.28V88H200.982V43.36H214.662V50.8ZM278.481 64.96C278.481 66.24 278.401 67.5733 278.241 68.96H247.281C247.494 71.7333 248.374 73.8667 249.921 75.36C251.521 76.8 253.467 77.52 255.761 77.52C259.174 77.52 261.547 76.08 262.881 73.2H277.441C276.694 76.1333 275.334 78.7733 273.361 81.12C271.441 83.4667 269.014 85.3067 266.081 86.64C263.147 87.9733 259.867 88.64 256.241 88.64C251.867 88.64 247.974 87.7067 244.561 85.84C241.147 83.9733 238.481 81.3067 236.561 77.84C234.641 74.3733 233.681 70.32 233.681 65.68C233.681 61.04 234.614 56.9867 236.481 53.52C238.401 50.0533 241.067 47.3867 244.481 45.52C247.894 43.6533 251.814 42.72 256.241 42.72C260.561 42.72 264.401 43.6267 267.761 45.44C271.121 47.2533 273.734 49.84 275.601 53.2C277.521 56.56 278.481 60.48 278.481 64.96ZM264.481 61.36C264.481 59.0133 263.681 57.1467 262.081 55.76C260.481 54.3733 258.481 53.68 256.081 53.68C253.787 53.68 251.841 54.3467 250.241 55.68C248.694 57.0133 247.734 58.9067 247.361 61.36H264.481Z" fill="white"/>
<path d="M328.76 138.92C328.76 142.173 328.013 145.16 326.52 147.88C325.027 150.547 322.733 152.707 319.64 154.36C316.547 156.013 312.707 156.84 308.12 156.84H299.64V177H285.96V120.84H308.12C312.6 120.84 316.387 121.613 319.48 123.16C322.573 124.707 324.893 126.84 326.44 129.56C327.987 132.28 328.76 135.4 328.76 138.92ZM307.08 145.96C309.693 145.96 311.64 145.347 312.92 144.12C314.2 142.893 314.84 141.16 314.84 138.92C314.84 136.68 314.2 134.947 312.92 133.72C311.64 132.493 309.693 131.88 307.08 131.88H299.64V145.96H307.08ZM350.762 117.8V177H337.082V117.8H350.762ZM359.156 154.6C359.156 150.013 360.009 145.987 361.716 142.52C363.476 139.053 365.849 136.387 368.836 134.52C371.822 132.653 375.156 131.72 378.836 131.72C381.982 131.72 384.729 132.36 387.076 133.64C389.476 134.92 391.316 136.6 392.596 138.68V132.36H406.276V177H392.596V170.68C391.262 172.76 389.396 174.44 386.996 175.72C384.649 177 381.902 177.64 378.756 177.64C375.129 177.64 371.822 176.707 368.836 174.84C365.849 172.92 363.476 170.227 361.716 166.76C360.009 163.24 359.156 159.187 359.156 154.6ZM392.596 154.68C392.596 151.267 391.636 148.573 389.716 146.6C387.849 144.627 385.556 143.64 382.836 143.64C380.116 143.64 377.796 144.627 375.876 146.6C374.009 148.52 373.076 151.187 373.076 154.6C373.076 158.013 374.009 160.733 375.876 162.76C377.796 164.733 380.116 165.72 382.836 165.72C385.556 165.72 387.849 164.733 389.716 162.76C391.636 160.787 392.596 158.093 392.596 154.68ZM442.253 165.4V177H435.293C430.333 177 426.466 175.8 423.693 173.4C420.919 170.947 419.533 166.973 419.533 161.48V143.72H414.093V132.36H419.533V121.48H433.213V132.36H442.173V143.72H433.213V161.64C433.213 162.973 433.533 163.933 434.173 164.52C434.813 165.107 435.879 165.4 437.373 165.4H442.253ZM493.153 153.96C493.153 155.24 493.073 156.573 492.913 157.96H461.953C462.166 160.733 463.046 162.867 464.593 164.36C466.193 165.8 468.139 166.52 470.433 166.52C473.846 166.52 476.219 165.08 477.553 162.2H492.113C491.366 165.133 490.006 167.773 488.033 170.12C486.113 172.467 483.686 174.307 480.753 175.64C477.819 176.973 474.539 177.64 470.913 177.64C466.539 177.64 462.646 176.707 459.233 174.84C455.819 172.973 453.153 170.307 451.233 166.84C449.313 163.373 448.353 159.32 448.353 154.68C448.353 150.04 449.286 145.987 451.153 142.52C453.073 139.053 455.739 136.387 459.153 134.52C462.566 132.653 466.486 131.72 470.913 131.72C475.233 131.72 479.073 132.627 482.433 134.44C485.793 136.253 488.406 138.84 490.273 142.2C492.193 145.56 493.153 149.48 493.153 153.96ZM479.153 150.36C479.153 148.013 478.353 146.147 476.753 144.76C475.153 143.373 473.153 142.68 470.753 142.68C468.459 142.68 466.513 143.347 464.913 144.68C463.366 146.013 462.406 147.907 462.033 150.36H479.153Z" fill="white"/>
<g filter="url(#filter0_d_85_55)">
<circle cx="140.349" cy="173.349" r="71.2647" transform="rotate(-30 140.349 173.349)" fill="url(#paint0_linear_85_55)"/>
</g>
<g filter="url(#filter1_di_85_55)">
<circle cx="140.349" cy="173.349" r="47.5098" transform="rotate(-30 140.349 173.349)" fill="url(#paint1_linear_85_55)"/>
</g>
<path fill-rule="evenodd" clip-rule="evenodd" d="M120 180C128.284 180 135 171.717 135 161.5C135 151.283 128.284 143 120 143C111.716 143 105 151.283 105 161.5C105 171.717 111.716 180 120 180Z" fill="#FAFF00"/>
<path fill-rule="evenodd" clip-rule="evenodd" d="M126 168C129.314 168 132 165.09 132 161.5C132 157.91 129.314 155 126 155C122.686 155 120 157.91 120 161.5C120 165.09 122.686 168 126 168Z" fill="#5A17EE"/>
<path fill-rule="evenodd" clip-rule="evenodd" d="M161.5 180C152.94 180 146 171.717 146 161.5C146 151.283 152.94 143 161.5 143C170.06 143 177 151.283 177 161.5C177 171.717 170.06 180 161.5 180Z" fill="#FAFF00"/>
<path fill-rule="evenodd" clip-rule="evenodd" d="M156 168C152.686 168 150 165.09 150 161.5C150 157.91 152.686 155 156 155C159.314 155 162 157.91 162 161.5C162 165.09 159.314 168 156 168Z" fill="#5A17EE"/>
<path fill-rule="evenodd" clip-rule="evenodd" d="M156 168C152.686 168 150 165.09 150 161.5C150 157.91 152.686 155 156 155C159.314 155 162 157.91 162 161.5C162 165.09 159.314 168 156 168Z" fill="#5A17EE"/>
<path fill-rule="evenodd" clip-rule="evenodd" d="M156 168C152.686 168 150 165.09 150 161.5C150 157.91 152.686 155 156 155C159.314 155 162 157.91 162 161.5C162 165.09 159.314 168 156 168Z" fill="#5A17EE"/>
<path fill-rule="evenodd" clip-rule="evenodd" d="M155 165C153.895 165 153 164.105 153 163C153 161.895 153.895 161 155 161C156.105 161 157 161.895 157 163C157 164.105 156.105 165 155 165Z" fill="#5A17EE"/>
<path fill-rule="evenodd" clip-rule="evenodd" d="M155 165C153.895 165 153 164.105 153 163C153 161.895 153.895 161 155 161C156.105 161 157 161.895 157 163C157 164.105 156.105 165 155 165Z" fill="#5A17EE"/>
<path fill-rule="evenodd" clip-rule="evenodd" d="M155 165C153.895 165 153 164.105 153 163C153 161.895 153.895 161 155 161C156.105 161 157 161.895 157 163C157 164.105 156.105 165 155 165Z" fill="white"/>
<path fill-rule="evenodd" clip-rule="evenodd" d="M155 165C153.895 165 153 164.105 153 163C153 161.895 153.895 161 155 161C156.105 161 157 161.895 157 163C157 164.105 156.105 165 155 165Z" fill="white"/>
<path fill-rule="evenodd" clip-rule="evenodd" d="M155 165C153.895 165 153 164.105 153 163C153 161.895 153.895 161 155 161C156.105 161 157 161.895 157 163C157 164.105 156.105 165 155 165Z" fill="white"/>
<path fill-rule="evenodd" clip-rule="evenodd" d="M155 165C153.895 165 153 164.105 153 163C153 161.895 153.895 161 155 161C156.105 161 157 161.895 157 163C157 164.105 156.105 165 155 165Z" fill="white"/>
<path fill-rule="evenodd" clip-rule="evenodd" d="M127 165C125.895 165 125 164.105 125 163C125 161.895 125.895 161 127 161C128.105 161 129 161.895 129 163C129 164.105 128.105 165 127 165Z" fill="#5A17EE"/>
<path fill-rule="evenodd" clip-rule="evenodd" d="M127 165C125.895 165 125 164.105 125 163C125 161.895 125.895 161 127 161C128.105 161 129 161.895 129 163C129 164.105 128.105 165 127 165Z" fill="#5A17EE"/>
<path fill-rule="evenodd" clip-rule="evenodd" d="M127 165C125.895 165 125 164.105 125 163C125 161.895 125.895 161 127 161C128.105 161 129 161.895 129 163C129 164.105 128.105 165 127 165Z" fill="white"/>
<path fill-rule="evenodd" clip-rule="evenodd" d="M127 165C125.895 165 125 164.105 125 163C125 161.895 125.895 161 127 161C128.105 161 129 161.895 129 163C129 164.105 128.105 165 127 165Z" fill="white"/>
<path fill-rule="evenodd" clip-rule="evenodd" d="M127 165C125.895 165 125 164.105 125 163C125 161.895 125.895 161 127 161C128.105 161 129 161.895 129 163C129 164.105 128.105 165 127 165Z" fill="white"/>
<path fill-rule="evenodd" clip-rule="evenodd" d="M127 165C125.895 165 125 164.105 125 163C125 161.895 125.895 161 127 161C128.105 161 129 161.895 129 163C129 164.105 128.105 165 127 165Z" fill="white"/>
<path d="M123 191C123 201.841 131.557 209 139.759 209C149.035 209 158 203.102 158 191" stroke="#5A17EE" stroke-width="6" stroke-linecap="round"/>
<path d="M106 144.881L123 135" stroke="#5A17EE" stroke-width="3"/>
<path d="M160 135L176.999 144.882" stroke="#5A17EE" stroke-width="3"/>
<defs>
<filter id="filter0_d_85_55" x="65.0728" y="102.073" width="150.553" height="150.553" filterUnits="userSpaceOnUse" color-interpolation-filters="sRGB">
<feFlood flood-opacity="0" result="BackgroundImageFix"/>
<feColorMatrix in="SourceAlpha" type="matrix" values="0 0 0 0 0 0 0 0 0 0 0 0 0 0 0 0 0 0 127 0" result="hardAlpha"/>
<feOffset dy="4"/>
<feGaussianBlur stdDeviation="2"/>
<feColorMatrix type="matrix" values="0 0 0 0 0 0 0 0 0 0 0 0 0 0 0 0 0 0 0.25 0"/>
<feBlend mode="normal" in2="BackgroundImageFix" result="effect1_dropShadow_85_55"/>
<feBlend mode="normal" in="SourceGraphic" in2="effect1_dropShadow_85_55" result="shape"/>
</filter>
<filter id="filter1_di_85_55" x="84.8315" y="117.832" width="117.035" height="117.035" filterUnits="userSpaceOnUse" color-interpolation-filters="sRGB">
<feFlood flood-opacity="0" result="BackgroundImageFix"/>
<feColorMatrix in="SourceAlpha" type="matrix" values="0 0 0 0 0 0 0 0 0 0 0 0 0 0 0 0 0 0 127 0" result="hardAlpha"/>
<feOffset dx="4" dy="4"/>
<feGaussianBlur stdDeviation="5"/>
<feColorMatrix type="matrix" values="0 0 0 0 0 0 0 0 0 0 0 0 0 0 0 0 0 0 0.16 0"/>
<feBlend mode="normal" in2="BackgroundImageFix" result="effect1_dropShadow_85_55"/>
<feBlend mode="normal" in="SourceGraphic" in2="effect1_dropShadow_85_55" result="shape"/>
<feColorMatrix in="SourceAlpha" type="matrix" values="0 0 0 0 0 0 0 0 0 0 0 0 0 0 0 0 0 0 127 0" result="hardAlpha"/>
<feOffset dx="-8" dy="-8"/>
<feGaussianBlur stdDeviation="5"/>
<feComposite in2="hardAlpha" operator="arithmetic" k2="-1" k3="1"/>
<feColorMatrix type="matrix" values="0 0 0 0 0 0 0 0 0 0 0 0 0 0 0 0 0 0 0.12 0"/>
<feBlend mode="normal" in2="shape" result="effect2_innerShadow_85_55"/>
</filter>
<linearGradient id="paint0_linear_85_55" x1="106.499" y1="115.15" x2="186.078" y2="232.143" gradientUnits="userSpaceOnUse">
<stop stop-color="white"/>
<stop offset="1" stop-color="#E9E9E9"/>
</linearGradient>
<linearGradient id="paint1_linear_85_55" x1="117.782" y1="134.55" x2="170.835" y2="212.545" gradientUnits="userSpaceOnUse">
<stop stop-color="white"/>
<stop offset="1" stop-color="#E9E9E9"/>
</linearGradient>
</defs>
</svg>
