<svg width="35" height="29" viewBox="0 0 35 29" fill="none" xmlns="http://www.w3.org/2000/svg">
<path d="M31.6667 0H3.16667C1.425 0 0 1.425 0 3.16667V9.48417H3.16667V3.135H31.6667V25.3492H3.16667V18.9842H0V25.3333C0 27.075 1.425 28.4683 3.16667 28.4683H31.6667C33.4083 28.4683 34.8333 27.075 34.8333 25.3333V3.16667C34.8333 1.40917 33.4083 0 31.6667 0V0ZM15.8333 20.5675L22.1667 14.2342L15.8333 7.90083V12.6508H0V15.8175H15.8333V20.5675ZM31.6667 0H3.16667C1.425 0 0 1.425 0 3.16667V9.48417H3.16667V3.135H31.6667V25.3492H3.16667V18.9842H0V25.3333C0 27.075 1.425 28.4683 3.16667 28.4683H31.6667C33.4083 28.4683 34.8333 27.075 34.8333 25.3333V3.16667C34.8333 1.40917 33.4083 0 31.6667 0V0ZM15.8333 20.5675L22.1667 14.2342L15.8333 7.90083V12.6508H0V15.8175H15.8333V20.5675Z" fill="#0000FF"/>
</svg>
