<svg width="263" height="85" viewBox="0 0 263 85" fill="none" xmlns="http://www.w3.org/2000/svg">
<g filter="url(#filter0_d_97_2360)">
<circle cx="42.1783" cy="42.1784" r="30.8767" transform="rotate(-30 42.1783 42.1784)" fill="url(#paint0_linear_97_2360)"/>
</g>
<g filter="url(#filter1_di_97_2360)">
<circle cx="42.1782" cy="42.1784" r="20.5845" transform="rotate(-30 42.1782 42.1784)" fill="url(#paint1_linear_97_2360)"/>
</g>
<path fill-rule="evenodd" clip-rule="evenodd" d="M33.3616 45.06C36.9509 45.06 39.8606 41.4713 39.8606 37.0445C39.8606 32.6177 36.9509 29.0291 33.3616 29.0291C29.7723 29.0291 26.8625 32.6177 26.8625 37.0445C26.8625 41.4713 29.7723 45.06 33.3616 45.06Z" fill="#FAFF00"/>
<path fill-rule="evenodd" clip-rule="evenodd" d="M35.9612 39.8608C37.3969 39.8608 38.5608 38.5999 38.5608 37.0445C38.5608 35.4891 37.3969 34.2283 35.9612 34.2283C34.5255 34.2283 33.3616 35.4891 33.3616 37.0445C33.3616 38.5999 34.5255 39.8608 35.9612 39.8608Z" fill="#5A17EE"/>
<path fill-rule="evenodd" clip-rule="evenodd" d="M51.3422 45.06C47.6333 45.06 44.6266 41.4713 44.6266 37.0445C44.6266 32.6177 47.6333 29.0291 51.3422 29.0291C55.0512 29.0291 58.0579 32.6177 58.0579 37.0445C58.0579 41.4713 55.0512 45.06 51.3422 45.06Z" fill="#FAFF00"/>
<path fill-rule="evenodd" clip-rule="evenodd" d="M48.9592 39.8608C47.5235 39.8608 46.3596 38.5999 46.3596 37.0445C46.3596 35.4891 47.5235 34.2283 48.9592 34.2283C50.395 34.2283 51.5588 35.4891 51.5588 37.0445C51.5588 38.5999 50.395 39.8608 48.9592 39.8608Z" fill="#5A17EE"/>
<path fill-rule="evenodd" clip-rule="evenodd" d="M48.9592 39.8608C47.5235 39.8608 46.3596 38.5999 46.3596 37.0445C46.3596 35.4891 47.5235 34.2283 48.9592 34.2283C50.395 34.2283 51.5588 35.4891 51.5588 37.0445C51.5588 38.5999 50.395 39.8608 48.9592 39.8608Z" fill="#5A17EE"/>
<path fill-rule="evenodd" clip-rule="evenodd" d="M48.9592 39.8608C47.5235 39.8608 46.3596 38.5999 46.3596 37.0445C46.3596 35.4891 47.5235 34.2283 48.9592 34.2283C50.395 34.2283 51.5588 35.4891 51.5588 37.0445C51.5588 38.5999 50.395 39.8608 48.9592 39.8608Z" fill="#5A17EE"/>
<path fill-rule="evenodd" clip-rule="evenodd" d="M48.5259 38.561C48.0473 38.561 47.6594 38.173 47.6594 37.6944C47.6594 37.2158 48.0473 36.8279 48.5259 36.8279C49.0045 36.8279 49.3925 37.2158 49.3925 37.6944C49.3925 38.173 49.0045 38.561 48.5259 38.561Z" fill="#5A17EE"/>
<path fill-rule="evenodd" clip-rule="evenodd" d="M48.5259 38.561C48.0473 38.561 47.6594 38.173 47.6594 37.6944C47.6594 37.2158 48.0473 36.8279 48.5259 36.8279C49.0045 36.8279 49.3925 37.2158 49.3925 37.6944C49.3925 38.173 49.0045 38.561 48.5259 38.561Z" fill="#5A17EE"/>
<path fill-rule="evenodd" clip-rule="evenodd" d="M48.5259 38.561C48.0473 38.561 47.6594 38.173 47.6594 37.6944C47.6594 37.2158 48.0473 36.8279 48.5259 36.8279C49.0045 36.8279 49.3925 37.2158 49.3925 37.6944C49.3925 38.173 49.0045 38.561 48.5259 38.561Z" fill="white"/>
<path fill-rule="evenodd" clip-rule="evenodd" d="M48.5259 38.561C48.0473 38.561 47.6594 38.173 47.6594 37.6944C47.6594 37.2158 48.0473 36.8279 48.5259 36.8279C49.0045 36.8279 49.3925 37.2158 49.3925 37.6944C49.3925 38.173 49.0045 38.561 48.5259 38.561Z" fill="white"/>
<path fill-rule="evenodd" clip-rule="evenodd" d="M48.5259 38.561C48.0473 38.561 47.6594 38.173 47.6594 37.6944C47.6594 37.2158 48.0473 36.8279 48.5259 36.8279C49.0045 36.8279 49.3925 37.2158 49.3925 37.6944C49.3925 38.173 49.0045 38.561 48.5259 38.561Z" fill="white"/>
<path fill-rule="evenodd" clip-rule="evenodd" d="M48.5259 38.561C48.0473 38.561 47.6594 38.173 47.6594 37.6944C47.6594 37.2158 48.0473 36.8279 48.5259 36.8279C49.0045 36.8279 49.3925 37.2158 49.3925 37.6944C49.3925 38.173 49.0045 38.561 48.5259 38.561Z" fill="white"/>
<path fill-rule="evenodd" clip-rule="evenodd" d="M36.3945 38.561C35.9159 38.561 35.5279 38.173 35.5279 37.6944C35.5279 37.2158 35.9159 36.8279 36.3945 36.8279C36.873 36.8279 37.261 37.2158 37.261 37.6944C37.261 38.173 36.873 38.561 36.3945 38.561Z" fill="#5A17EE"/>
<path fill-rule="evenodd" clip-rule="evenodd" d="M36.3945 38.561C35.9159 38.561 35.5279 38.173 35.5279 37.6944C35.5279 37.2158 35.9159 36.8279 36.3945 36.8279C36.873 36.8279 37.261 37.2158 37.261 37.6944C37.261 38.173 36.873 38.561 36.3945 38.561Z" fill="#5A17EE"/>
<path fill-rule="evenodd" clip-rule="evenodd" d="M36.3945 38.561C35.9159 38.561 35.5279 38.173 35.5279 37.6944C35.5279 37.2158 35.9159 36.8279 36.3945 36.8279C36.873 36.8279 37.261 37.2158 37.261 37.6944C37.261 38.173 36.873 38.561 36.3945 38.561Z" fill="white"/>
<path fill-rule="evenodd" clip-rule="evenodd" d="M36.3945 38.561C35.9159 38.561 35.5279 38.173 35.5279 37.6944C35.5279 37.2158 35.9159 36.8279 36.3945 36.8279C36.873 36.8279 37.261 37.2158 37.261 37.6944C37.261 38.173 36.873 38.561 36.3945 38.561Z" fill="white"/>
<path fill-rule="evenodd" clip-rule="evenodd" d="M36.3945 38.561C35.9159 38.561 35.5279 38.173 35.5279 37.6944C35.5279 37.2158 35.9159 36.8279 36.3945 36.8279C36.873 36.8279 37.261 37.2158 37.261 37.6944C37.261 38.173 36.873 38.561 36.3945 38.561Z" fill="white"/>
<path fill-rule="evenodd" clip-rule="evenodd" d="M36.3945 38.561C35.9159 38.561 35.5279 38.173 35.5279 37.6944C35.5279 37.2158 35.9159 36.8279 36.3945 36.8279C36.873 36.8279 37.261 37.2158 37.261 37.6944C37.261 38.173 36.873 38.561 36.3945 38.561Z" fill="white"/>
<path d="M34.6614 49.8258C34.6614 54.5228 38.3687 57.6246 41.9223 57.6246C45.9417 57.6246 49.8257 55.069 49.8257 49.8258" stroke="#5A17EE" stroke-width="2" stroke-linecap="round"/>
<path d="M27.2958 29.8439L34.6613 25.5629" stroke="#5A17EE" stroke-width="1.5"/>
<path d="M50.6923 25.5629L58.0575 29.8444" stroke="#5A17EE" stroke-width="1.5"/>
<path d="M93.48 54.21C91.94 54.21 90.56 53.96 89.34 53.46C88.12 52.96 87.14 52.22 86.4 51.24C85.68 50.26 85.3 49.08 85.26 47.7H90.72C90.8 48.48 91.07 49.08 91.53 49.5C91.99 49.9 92.59 50.1 93.33 50.1C94.09 50.1 94.69 49.93 95.13 49.59C95.57 49.23 95.79 48.74 95.79 48.12C95.79 47.6 95.61 47.17 95.25 46.83C94.91 46.49 94.48 46.21 93.96 45.99C93.46 45.77 92.74 45.52 91.8 45.24C90.44 44.82 89.33 44.4 88.47 43.98C87.61 43.56 86.87 42.94 86.25 42.12C85.63 41.3 85.32 40.23 85.32 38.91C85.32 36.95 86.03 35.42 87.45 34.32C88.87 33.2 90.72 32.64 93 32.64C95.32 32.64 97.19 33.2 98.61 34.32C100.03 35.42 100.79 36.96 100.89 38.94H95.34C95.3 38.26 95.05 37.73 94.59 37.35C94.13 36.95 93.54 36.75 92.82 36.75C92.2 36.75 91.7 36.92 91.32 37.26C90.94 37.58 90.75 38.05 90.75 38.67C90.75 39.35 91.07 39.88 91.71 40.26C92.35 40.64 93.35 41.05 94.71 41.49C96.07 41.95 97.17 42.39 98.01 42.81C98.87 43.23 99.61 43.84 100.23 44.64C100.85 45.44 101.16 46.47 101.16 47.73C101.16 48.93 100.85 50.02 100.23 51C99.63 51.98 98.75 52.76 97.59 53.34C96.43 53.92 95.06 54.21 93.48 54.21ZM115.057 37.08C116.977 37.08 118.517 37.72 119.677 39C120.837 40.26 121.417 42 121.417 44.22V54H116.317V44.91C116.317 43.79 116.027 42.92 115.447 42.3C114.867 41.68 114.087 41.37 113.107 41.37C112.127 41.37 111.347 41.68 110.767 42.3C110.187 42.92 109.897 43.79 109.897 44.91V54H104.767V31.8H109.897V39.51C110.417 38.77 111.127 38.18 112.027 37.74C112.927 37.3 113.937 37.08 115.057 37.08ZM124.412 45.6C124.412 43.88 124.732 42.37 125.372 41.07C126.032 39.77 126.922 38.77 128.042 38.07C129.162 37.37 130.412 37.02 131.792 37.02C132.972 37.02 134.002 37.26 134.882 37.74C135.782 38.22 136.472 38.85 136.952 39.63V37.26H142.082V54H136.952V51.63C136.452 52.41 135.752 53.04 134.852 53.52C133.972 54 132.942 54.24 131.762 54.24C130.402 54.24 129.162 53.89 128.042 53.19C126.922 52.47 126.032 51.46 125.372 50.16C124.732 48.84 124.412 47.32 124.412 45.6ZM136.952 45.63C136.952 44.35 136.592 43.34 135.872 42.6C135.172 41.86 134.312 41.49 133.292 41.49C132.272 41.49 131.402 41.86 130.682 42.6C129.982 43.32 129.632 44.32 129.632 45.6C129.632 46.88 129.982 47.9 130.682 48.66C131.402 49.4 132.272 49.77 133.292 49.77C134.312 49.77 135.172 49.4 135.872 48.66C136.592 47.92 136.952 46.91 136.952 45.63ZM151.373 40.05C151.973 39.13 152.723 38.41 153.623 37.89C154.523 37.35 155.523 37.08 156.623 37.08V42.51H155.213C153.933 42.51 152.973 42.79 152.333 43.35C151.693 43.89 151.373 44.85 151.373 46.23V54H146.243V37.26H151.373V40.05ZM175.305 45.36C175.305 45.84 175.275 46.34 175.215 46.86H163.605C163.685 47.9 164.015 48.7 164.595 49.26C165.195 49.8 165.925 50.07 166.785 50.07C168.065 50.07 168.955 49.53 169.455 48.45H174.915C174.635 49.55 174.125 50.54 173.385 51.42C172.665 52.3 171.755 52.99 170.655 53.49C169.555 53.99 168.325 54.24 166.965 54.24C165.325 54.24 163.865 53.89 162.585 53.19C161.305 52.49 160.305 51.49 159.585 50.19C158.865 48.89 158.505 47.37 158.505 45.63C158.505 43.89 158.855 42.37 159.555 41.07C160.275 39.77 161.275 38.77 162.555 38.07C163.835 37.37 165.305 37.02 166.965 37.02C168.585 37.02 170.025 37.36 171.285 38.04C172.545 38.72 173.525 39.69 174.225 40.95C174.945 42.21 175.305 43.68 175.305 45.36ZM170.055 44.01C170.055 43.13 169.755 42.43 169.155 41.91C168.555 41.39 167.805 41.13 166.905 41.13C166.045 41.13 165.315 41.38 164.715 41.88C164.135 42.38 163.775 43.09 163.635 44.01H170.055Z" fill="#FAFF00"/>
<path d="M194.512 39.72C194.512 40.94 194.232 42.06 193.672 43.08C193.112 44.08 192.252 44.89 191.092 45.51C189.932 46.13 188.492 46.44 186.772 46.44H183.592V54H178.462V32.94H186.772C188.452 32.94 189.872 33.23 191.032 33.81C192.192 34.39 193.062 35.19 193.642 36.21C194.222 37.23 194.512 38.4 194.512 39.72ZM186.382 42.36C187.362 42.36 188.092 42.13 188.572 41.67C189.052 41.21 189.292 40.56 189.292 39.72C189.292 38.88 189.052 38.23 188.572 37.77C188.092 37.31 187.362 37.08 186.382 37.08H183.592V42.36H186.382ZM202.762 31.8V54H197.632V31.8H202.762ZM205.91 45.6C205.91 43.88 206.23 42.37 206.87 41.07C207.53 39.77 208.42 38.77 209.54 38.07C210.66 37.37 211.91 37.02 213.29 37.02C214.47 37.02 215.5 37.26 216.38 37.74C217.28 38.22 217.97 38.85 218.45 39.63V37.26H223.58V54H218.45V51.63C217.95 52.41 217.25 53.04 216.35 53.52C215.47 54 214.44 54.24 213.26 54.24C211.9 54.24 210.66 53.89 209.54 53.19C208.42 52.47 207.53 51.46 206.87 50.16C206.23 48.84 205.91 47.32 205.91 45.6ZM218.45 45.63C218.45 44.35 218.09 43.34 217.37 42.6C216.67 41.86 215.81 41.49 214.79 41.49C213.77 41.49 212.9 41.86 212.18 42.6C211.48 43.32 211.13 44.32 211.13 45.6C211.13 46.88 211.48 47.9 212.18 48.66C212.9 49.4 213.77 49.77 214.79 49.77C215.81 49.77 216.67 49.4 217.37 48.66C218.09 47.92 218.45 46.91 218.45 45.63ZM237.071 49.65V54H234.461C232.601 54 231.151 53.55 230.111 52.65C229.071 51.73 228.551 50.24 228.551 48.18V41.52H226.511V37.26H228.551V33.18H233.681V37.26H237.041V41.52H233.681V48.24C233.681 48.74 233.801 49.1 234.041 49.32C234.281 49.54 234.681 49.65 235.241 49.65H237.071ZM256.159 45.36C256.159 45.84 256.129 46.34 256.069 46.86H244.459C244.539 47.9 244.869 48.7 245.449 49.26C246.049 49.8 246.779 50.07 247.639 50.07C248.919 50.07 249.809 49.53 250.309 48.45H255.769C255.489 49.55 254.979 50.54 254.239 51.42C253.519 52.3 252.609 52.99 251.509 53.49C250.409 53.99 249.179 54.24 247.819 54.24C246.179 54.24 244.719 53.89 243.439 53.19C242.159 52.49 241.159 51.49 240.439 50.19C239.719 48.89 239.359 47.37 239.359 45.63C239.359 43.89 239.709 42.37 240.409 41.07C241.129 39.77 242.129 38.77 243.409 38.07C244.689 37.37 246.159 37.02 247.819 37.02C249.439 37.02 250.879 37.36 252.139 38.04C253.399 38.72 254.379 39.69 255.079 40.95C255.799 42.21 256.159 43.68 256.159 45.36ZM250.909 44.01C250.909 43.13 250.609 42.43 250.009 41.91C249.409 41.39 248.659 41.13 247.759 41.13C246.899 41.13 246.169 41.38 245.569 41.88C244.989 42.38 244.629 43.09 244.489 44.01H250.909Z" fill="white"/>
<defs>
<filter id="filter0_d_97_2360" x="7.29651" y="11.2965" width="69.7637" height="69.7637" filterUnits="userSpaceOnUse" color-interpolation-filters="sRGB">
<feFlood flood-opacity="0" result="BackgroundImageFix"/>
<feColorMatrix in="SourceAlpha" type="matrix" values="0 0 0 0 0 0 0 0 0 0 0 0 0 0 0 0 0 0 127 0" result="hardAlpha"/>
<feOffset dy="4"/>
<feGaussianBlur stdDeviation="2"/>
<feColorMatrix type="matrix" values="0 0 0 0 0 0 0 0 0 0 0 0 0 0 0 0 0 0 0.25 0"/>
<feBlend mode="normal" in2="BackgroundImageFix" result="effect1_dropShadow_97_2360"/>
<feBlend mode="normal" in="SourceGraphic" in2="effect1_dropShadow_97_2360" result="shape"/>
</filter>
<filter id="filter1_di_97_2360" x="13.5903" y="13.5905" width="63.1758" height="63.1758" filterUnits="userSpaceOnUse" color-interpolation-filters="sRGB">
<feFlood flood-opacity="0" result="BackgroundImageFix"/>
<feColorMatrix in="SourceAlpha" type="matrix" values="0 0 0 0 0 0 0 0 0 0 0 0 0 0 0 0 0 0 127 0" result="hardAlpha"/>
<feOffset dx="4" dy="4"/>
<feGaussianBlur stdDeviation="5"/>
<feColorMatrix type="matrix" values="0 0 0 0 0 0 0 0 0 0 0 0 0 0 0 0 0 0 0.16 0"/>
<feBlend mode="normal" in2="BackgroundImageFix" result="effect1_dropShadow_97_2360"/>
<feBlend mode="normal" in="SourceGraphic" in2="effect1_dropShadow_97_2360" result="shape"/>
<feColorMatrix in="SourceAlpha" type="matrix" values="0 0 0 0 0 0 0 0 0 0 0 0 0 0 0 0 0 0 127 0" result="hardAlpha"/>
<feOffset dx="-8" dy="-8"/>
<feGaussianBlur stdDeviation="5"/>
<feComposite in2="hardAlpha" operator="arithmetic" k2="-1" k3="1"/>
<feColorMatrix type="matrix" values="0 0 0 0 0 0 0 0 0 0 0 0 0 0 0 0 0 0 0.12 0"/>
<feBlend mode="normal" in2="shape" result="effect2_innerShadow_97_2360"/>
</filter>
<linearGradient id="paint0_linear_97_2360" x1="27.5119" y1="16.9624" x2="61.9909" y2="67.6516" gradientUnits="userSpaceOnUse">
<stop stop-color="white"/>
<stop offset="1" stop-color="#E9E9E9"/>
</linearGradient>
<linearGradient id="paint1_linear_97_2360" x1="32.4006" y1="25.3677" x2="55.3866" y2="59.1605" gradientUnits="userSpaceOnUse">
<stop stop-color="white"/>
<stop offset="1" stop-color="#E9E9E9"/>
</linearGradient>
</defs>
</svg>
