<svg width="48" height="48" viewBox="0 0 48 48" fill="none" xmlns="http://www.w3.org/2000/svg">
<path d="M15.2919 6H9.78947C7.69661 6 6 7.69661 6 9.78947C6 27.5789 20.4211 42 38.2105 42C40.3034 42 42 40.3034 42 38.2105V32.7081C42 31.0725 41.0042 29.6017 39.4856 28.9942L34.2142 26.8857C32.8501 26.34 31.2966 26.5861 30.1679 27.5267L28.8062 28.6615C27.2169 29.9859 24.8799 29.8799 23.417 28.417L19.583 24.583C18.1201 23.1201 18.0141 20.7831 19.3385 19.1938L20.4733 17.8321C21.4139 16.7034 21.66 15.1499 21.1143 13.7858L19.0058 8.51444C18.3983 6.9958 16.9275 6 15.2919 6Z" stroke="#00D9FF" stroke-width="2" stroke-linecap="round" stroke-linejoin="round"/>
</svg>
