<svg width="195" height="195" viewBox="0 0 195 195" fill="none" xmlns="http://www.w3.org/2000/svg">
<g filter="url(#filter0_d_134_1409)">
<circle cx="97.3494" cy="97.3493" r="71.2647" transform="rotate(-30 97.3494 97.3493)" fill="url(#paint0_linear_134_1409)"/>
</g>
<g filter="url(#filter1_di_134_1409)">
<circle cx="97.3493" cy="97.3493" r="47.5098" transform="rotate(-30 97.3493 97.3493)" fill="url(#paint1_linear_134_1409)"/>
</g>
<path d="M98.9335 140.198L97.4628 66.661C100.535 63.5415 138.037 73.6169 135.984 77.7753C123.77 121.788 106.196 137.731 98.9335 140.198Z" fill="#E9D100"/>
<path d="M99.1281 140.875L98.6611 67.3831C96.9229 65.3187 87.0416 64.3515 61.4248 76.9383C54.1162 103.494 83.5167 130.628 99.1281 140.875Z" fill="#070DE9"/>
<path d="M86.5653 87.0153L87.5216 76.6335C83.3649 76.6616 74.2252 77.5476 70.9215 80.8925C66.7872 85.075 92.0539 132.675 100.331 129.509C106.967 126.971 118.865 102.737 123.984 90.9341L126.062 90.92L125.99 80.5386L110.366 76.464L110.438 86.8454C111.476 86.8353 113.762 87.0326 114.598 87.8563C115.645 88.8774 104.401 116.996 99.1895 114.952C95.0205 113.321 87.6813 103.262 84.5309 98.4326L83.4109 87.0239L86.5653 87.0153Z" fill="white"/>
<defs>
<filter id="filter0_d_134_1409" x="22.0728" y="26.0728" width="150.553" height="150.553" filterUnits="userSpaceOnUse" color-interpolation-filters="sRGB">
<feFlood flood-opacity="0" result="BackgroundImageFix"/>
<feColorMatrix in="SourceAlpha" type="matrix" values="0 0 0 0 0 0 0 0 0 0 0 0 0 0 0 0 0 0 127 0" result="hardAlpha"/>
<feOffset dy="4"/>
<feGaussianBlur stdDeviation="2"/>
<feColorMatrix type="matrix" values="0 0 0 0 0 0 0 0 0 0 0 0 0 0 0 0 0 0 0.25 0"/>
<feBlend mode="normal" in2="BackgroundImageFix" result="effect1_dropShadow_134_1409"/>
<feBlend mode="normal" in="SourceGraphic" in2="effect1_dropShadow_134_1409" result="shape"/>
</filter>
<filter id="filter1_di_134_1409" x="41.8315" y="41.8315" width="117.035" height="117.035" filterUnits="userSpaceOnUse" color-interpolation-filters="sRGB">
<feFlood flood-opacity="0" result="BackgroundImageFix"/>
<feColorMatrix in="SourceAlpha" type="matrix" values="0 0 0 0 0 0 0 0 0 0 0 0 0 0 0 0 0 0 127 0" result="hardAlpha"/>
<feOffset dx="4" dy="4"/>
<feGaussianBlur stdDeviation="5"/>
<feColorMatrix type="matrix" values="0 0 0 0 0 0 0 0 0 0 0 0 0 0 0 0 0 0 0.16 0"/>
<feBlend mode="normal" in2="BackgroundImageFix" result="effect1_dropShadow_134_1409"/>
<feBlend mode="normal" in="SourceGraphic" in2="effect1_dropShadow_134_1409" result="shape"/>
<feColorMatrix in="SourceAlpha" type="matrix" values="0 0 0 0 0 0 0 0 0 0 0 0 0 0 0 0 0 0 127 0" result="hardAlpha"/>
<feOffset dx="-8" dy="-8"/>
<feGaussianBlur stdDeviation="5"/>
<feComposite in2="hardAlpha" operator="arithmetic" k2="-1" k3="1"/>
<feColorMatrix type="matrix" values="0 0 0 0 0 0 0 0 0 0 0 0 0 0 0 0 0 0 0.12 0"/>
<feBlend mode="normal" in2="shape" result="effect2_innerShadow_134_1409"/>
</filter>
<linearGradient id="paint0_linear_134_1409" x1="63.4986" y1="39.1498" x2="143.078" y2="156.143" gradientUnits="userSpaceOnUse">
<stop stop-color="white"/>
<stop offset="1" stop-color="#E9E9E9"/>
</linearGradient>
<linearGradient id="paint1_linear_134_1409" x1="74.7821" y1="58.5496" x2="127.835" y2="136.545" gradientUnits="userSpaceOnUse">
<stop stop-color="white"/>
<stop offset="1" stop-color="#E9E9E9"/>
</linearGradient>
</defs>
</svg>
