<svg id="Layer_1" data-name="Layer 1" xmlns="http://www.w3.org/2000/svg" viewBox="0 0 1733.75 937.81"><defs><style>.cls-1{fill:#ffe202;}.cls-2{fill:#fffeca;}</style></defs><path id="path150" class="cls-1" d="M1603.75,341.66c.77-2.56,1.54-5.13,2.31-8-2.31.52-5.65.26-7.19,1.8-3.85,3.6-7.19,8.21-10.53,12.58a22.68,22.68,0,0,0,1.8,2.56c4.11-2.56,8.22-5.13,13.61-9m80.85-91.12c-3.33,1.54-6.41,2.82-9.49,4.36,2.31,4.37,3.34,11,6.93,13.09,6.67,3.08,13.6-.25,16.94-6.67.52-1.28-4.11-5.65-6.68-8.22-1.28-1.28-3.33-1.79-7.7-2.56m124.5,42.35c.77-24.64-9.5-45.44-26.44-61.86-26.44-26.18-58.78-42.61-93.69-55.19-20.28-6.93-39.79-7.7-58.53,3.08-3.08,1.8-4.36,7.44-5.9,11.55,0,.26,4.36,2.57,6.93,3.6,9,3.33,18.74,4.87,26.44,10,13.86,8.47,25.67,20.27,39.79,28.23,31.83,17.71,63.65,34.91,87,64.17,4.37,5.65,19.77,4.11,24.39-3.59m-240,62.89c-2.31,3.85-4.88,7.45-6.42,11.55-4.62,12.84-9.24,25.93-13.35,39.28-4.88,15.14-7.19,30.54,2.57,44.91,11.55,17,22.59,16.69,33.88-.51,10-15.65,21-30,37.48-39.27,5.39-3.08,9.49-8.22,14.63-11.55,22.84-15.66,45.69-31.32,69.3-46.21,14.64-9.24,31.32-15.91,45.44-25.92,23.61-16.43,24.12-24.9,3.59-44.15-13.86-12.84-29.26-24.13-44.15-35.94-1.28-1-3.34-1.28-5.13-2.05,0,1.79-1,4.1-.52,4.87,11,11.56,2.83,17.71-5.9,25.42-7.7,6.41-15.92,8-22.59,2.82-7.7-6.16-18-12.06-14.12-26.18,3.34-11.81,10.27-13.61,20.28-12.58,2.31,0,4.62-1,6.93-1.54-.77-1.54-1-3.59-2-4.11-13.35-8.47-26.44-16.68-40-24.38-1.29-.77-5.65,1.54-6.42,3.34-7.19,15.91-13.61,31.82-20.28,48-3.85,9.49-5.9,20-11.29,28.49-7.45,12.32-17.46,22.59-25.67,34.4-4.37,6.15-6.94,13.35-10,20-.76,1.79-.76,4.1-1,6.15,2-1.28,4.88-2.05,6.16-3.84,3.85-5.14,5.9-12.07,10.78-15.66a29.6,29.6,0,0,1,18-5.39c2.56,0,7.44,7.44,6.93,11-.77,4.87-4.62,10.26-8.73,13.85-9.75,8.22-26.18,8-29.52,24.13-.25.78-3.59,1.55-5.39,1.29-.77,0-2-2.31-2-3.6a61.07,61.07,0,0,1,1.28-16.68,7,7,0,0,1,.26-2.31,5.44,5.44,0,0,1-2.82,2.31m65.45-192.52c29-6.93,56-2.56,80.6,10.53,23.87,12.57,48.52,25.41,69.56,42.1,18.48,14.88,30,36.45,34.66,60.83.77,4.1,1.79,8,2.56,11.8,2.06,13.1-8.21,24.91-20.27,23.36-12.84-1.53-21.57,3.34-29.78,12.59-15.66,17.71-37.48,25.92-57.75,36.7-14.38,7.7-28.75,15.91-41.85,25.67-21.3,15.4-41.84,31.83-61.86,48.77-6.67,5.65-10.52,14.63-16.69,21.05-7.18,7.19-14.88,14.89-23.86,19.25-8.73,4.36-25.93-9.75-30.3-22.33-9-25.42-3.84-48.52,6.42-72.64,15.4-37,38.25-69.05,58.53-102.93,12.32-20.29,18.48-44.41,26.69-67,.52-1.54-2.82-4.88-4.87-6.68-4.88-4.1-13.09-7.18-14.38-12.32-2.31-9.49,3.08-18.22,11.81-23.61a86,86,0,0,1,10.78-5.14" transform="translate(-88.45 -76.76)"/><path id="path216" class="cls-1" d="M1662.79,316c.76,8-.52,14.63-8.73,19.51-3.34,1.8-4.11,8-6.16,12.07,4.11-2.05,9.5-3.08,12.32-6.16,5.64-6.68,11.81-10,20.79-9,2.83.51,5.9-1.8,9-2.56-1-3.6-1.28-9-3.59-10.28-7.7-4.1-15.91-6.67-23.87-10,0,1.29,0,2.57.26,6.42m-22.59,17.46c9.5-2.57,10-8.73,9.75-16.17-.25-17.46,8.21-23.11,24.9-17.46a42,42,0,0,1,25.41,23.62c1.55,3.59-.25,11-3.34,14.12-3.84,4.1-11.29,8.72-15.4,7.18-8.72-2.56-13.08,1-17.71,6.16-5.65,6.16-12.32,10.27-20,4.63-7.7-5.4-8.47-13.35-3.59-22.08" transform="translate(-88.45 -76.76)"/><path id="path218" class="cls-1" d="M1714.13,308.29c2.82-3.08,5.9-5.9,8.72-9,0,3.34.26,6.67.26,10.26v2.57c1.28-.26,3.08-.26,3.34-1,1.79-5.39,3.33-11,4.87-16.43-5.9-.52-12.58-3.34-16.94-1.28-6.93,3.33-8.47,10-.25,14.88m-12.84-11.55c9.75-17.71,24.38-20.79,35.68-9,7.7,7.44,7.19,18.22-1,26.95-5.64,5.9-20.28,8-25.67,2.06-4.87-4.89-12.06-9.51-9-20" transform="translate(-88.45 -76.76)"/><path id="path220" class="cls-1" d="M1643.53,268.5c.26-1.28.78-2.82,1-4.1,0,0-1-.26-1.8-.51a8.56,8.56,0,0,0,.77,4.61m-9,12.84c-4.11-11.29,2.57-42.1,10.27-47.23,1.54-.77,7.44,1.54,7.44,2.57-.51,13.86-.51,28-2.56,41.58-1.55,9-9.25,5.9-15.15,3.08" transform="translate(-88.45 -76.76)"/><path id="path222" class="cls-1" d="M1629.42,387.87c.77-1.8,1.54-3.6,2.31-5.14a3.82,3.82,0,0,0-1.8-.51c-.51,2.31-1.28,4.62-.51,5.65M1621,373.24c10.52-1.29,20.27-1.55,29.77-2.06,0,2.06.51,4.88-.51,5.65-10.52,8.73-21.56,17.2-32.6,25.16-2,1.53-5.14,1.53-8,2.31.77-3.09.77-6.17,1.8-8.73,2.82-7.45,5.9-14.63,9.5-22.33" transform="translate(-88.45 -76.76)"/><path id="path224" class="cls-1" d="M1560.62,423.29c7.19-.51,13.61-.26,20-.26-.25,5.65,1.55,14.12-1,16.17-4.11,2.83-12.58,3.6-17.45,1.29-6.68-3.08-6.68-10.27-1.55-17.2" transform="translate(-88.45 -76.76)"/><path id="path226" class="cls-1" d="M1588.86,374.52a103.68,103.68,0,0,1,16.69-2.83c-.78,4.63,0,11.81-2.31,13.09-4.37,2.57-11.3,2.83-16.18,1.55-5.9-1.8-5.39-3.34,1.8-11.81" transform="translate(-88.45 -76.76)"/><path id="path228" class="cls-1" d="M1614.53,302.65a9.07,9.07,0,0,1,4.11-1.54c5.13-.52,10-1,14.88-1.55-2,3.6-3.33,8.73-6.42,10.53-5.12,2.57-11.29,3.08-17.19,4.62,1.54-3.85,2.82-7.7,4.62-12.06" transform="translate(-88.45 -76.76)"/><path id="path230" class="cls-1" d="M1714.13,342.94a28.77,28.77,0,0,1-7.19-4.36l23.1-8.47c0,1.8.77,4.88,0,5.39a92.61,92.61,0,0,1-15.91,7.44" transform="translate(-88.45 -76.76)"/><path id="path30" class="cls-1" d="M266.19,867.08c12.55-1,16.86-4.42,16.51-13C282.46,847,267,830.74,260,830.56c-1.55,0-3.26,1.19-4.9,1.78a21.34,21.34,0,0,0,2.65,3.79c2.68,2.39,6,4.31,8.33,7,2,2.38,5,7.23,4.08,8.34-2.25,3-6.84,6.51-9.57,5.87-6.09-1.13-11.7-4.58-17.11-7.6-1.24-.81-1-4-1.6-6,2.59.35,5.55,0,7.64,1.11,2.7,1.33,4.88,4.13,7.52,5.67,1,.59,2.81.07,4.16-.38.28-.14.27-2.39-.13-3.24-5.67-9.5-19.56-11-27.36-2.8-.44.55-.76,2.09-.42,2.45,9.35,8.81,17.67,19.15,32.89,20.52M153.58,828.72c-8.74-7.54-18.27-14.53-26.29-22.75-7.68-7.86-13.78-17.16-20.74-25.7-1.09-1.23-3.19-1.63-4.8-2.09-.21-.08-1.82,2.41-1.42,3.27,2.83,7.87,4.43,16.85,9.54,23.3,10.76,14.06,20.58,29.08,34.13,41.31,16.49,15.19,34.92,23.39,57.21,23.53,1.76,0,3.61-.82,5.38-1.13a34.51,34.51,0,0,0-2.9-5.07c-1-1.08-2.49-1.61-3.59-2.48-11.27-10.34-27.15-13.84-37-26.25-1.9-2.58-5.6-3.8-9.55-5.94m46-68.47c-21.91-15.6-40.2-35-57.18-55.67-5.54-6.61-8.55-7.11-13.65.15-10.43,14.44-14.56,30.44-15.64,48.13-1.26,19.53,6.89,33.59,19.81,45.59a304.59,304.59,0,0,0,37.36,30.06c12.24,8.33,24,18.12,41.45,13.21,13.95-3.94,27.68-7.25,39.44-16.23,7.83-6.28,8.11-9.36.57-16.94-4.4-4.19-9.59-7.49-13.92-11.53-12.64-11.79-25.14-23.64-38.24-36.77m49.62,34.38c4.33,4,8.11,7.66,11.81,11.48,1.58,1.52,4.13,3.63,3.95,5.1-1.5,14.94,12.39,19,19,27.91,4.22,5.66,8,11.17,8,18.63.1,10.2-14.44,17.71-24.58,18.3-14.58.75-22.47-9.79-32.13-17.42-1.24-1.15-3-2.25-3.35-3.81-2.7-9.84-10.5-7.58-17.13-6.9-3.52.26-6.94,2.22-10.35,3.46,2.68,2.39,5.36,4.78,8.12,7,1.59,1.17,3.61,1.78,5,3.22,4.25,4.26,1.53,11.79-6.67,13.55-9,1.81-18.84,2.41-27.72.5-16.16-3.37-31.84-9.39-43.69-21.72-9.87-10.3-18.22-22.19-27.8-33-11.76-13.24-16-29.31-19.16-46.06-.75-3.82-2.91-7.32-3.94-11-.52-1.49.36-3.3.69-4.84,1.46.53,3.43.65,4.45,1.73,2.82,2.68,5.06,6,7.66,8.92,1,1.08,2.27,1.88,3.44,2.9.4-1.75,1.07-3.28,1-4.83-.09-10.2-1.66-20.58-.07-30.52,2.75-17.09,10.6-32.58,20.8-46.74,3.28-4.49,6.92-3.77,10.43-.72,6.19,5.43,12.75,10.52,18.08,16.7a377.5,377.5,0,0,0,45.09,44.32c14.81,12.33,28.53,26,42.83,39.14a48.8,48.8,0,0,0,6.2,4.72" transform="translate(-88.45 -76.76)"/><path id="path138" class="cls-1" d="M1733.47,587.84c-3.56,14.71-14.18,24.34-25.85,32.09-8.6,5.87-18.95,9.16-28.5,13.49-2.15,1-4.09,2.3-6.35,2.94a20,20,0,0,0-2.12,1,36.67,36.67,0,0,1-3.74,1.76c-1.73.74-3.43,1.56-5.12,2.37a2.65,2.65,0,0,1-2.53,1.2c-1.12.52-2.24,1-3.38,1.48-1.43.58-3,1.36-4.72,2.13a3.15,3.15,0,0,1-2.14.94c-2.82,1.16-5.77,2-8.45,1.64-14.63,5.35-29.68,8.67-42.81,15.52-13.62,7.15-26.06,5.26-39.19,1.38-7.93-2.26-7.91-9.06-2.62-13.48,6.46-5.27,13.84-6.83,21.44-6.66,9.88.06,18.81-2.83,28-5.54,2-.69,4.34-.06,6.32-.75,8.74-3.09,17.57-6.33,26.21-9.77,7.64-2.91,15.06-6.14,22.73-8.93,16.62-6.07,29.29-17,40-31,5.84-7.53,12.46-14.51,23.59-13.65,8.09.54,11.12,4,9.22,11.88Zm-45,101.49a23.15,23.15,0,0,0-2.32,18.71c4.73,16.86,8.42,34.14,13.26,51,3.63,12.94,5.89,26.52,14.17,37.78,2.24,3,3.39,6.61,5.71,9.41,3.29,3.95,2.86,7.91,0,11.29-3.48,4-8,8.39-13.91,6.58-2.65-.79-5.67-4.68-6.11-7.64-1.6-8.9-2-18.13-2.89-27.23-.79-7-1-14-2.27-20.89-2.16-10.92-4.83-21.83-7.86-32.63-2.19-7.84-5.13-15.6-7.69-23.34-2.13-7.6-6-11.26-13-11.21-1.25.09-2.87-1.12-3.56-2.21a98.9,98.9,0,0,1-7.37-13c-.64-1.36.68-3.52.77-5.46a17.68,17.68,0,0,0-.48-6.28c-1.91-6.37-4-12.57-6.54-18.78-1.42-3.7,1.39-3.72,3.27-3.86.9,0,2.35,1.51,2.8,2.67,1.71,4.26,2.08,8.77,7.5,11.22,2.82,1.38,4.27,6.1,6,9.47s3.07,6.82,4.74,10.07c.54,1,2,1.35,3,2,.48-1,1.4-2.32,1.17-3.15-1.71-5.67-2.21-11.55-7.54-15.94-3.49-2.87-7.9-6.25-6.78-12.32.12-.93-1.92-2.28-1.83-3.33.16-1.71,1.22-3.42,1.89-5.14,1.13.83,2.94,1.35,3.36,2.39,1.27,3.61,2.22,7.45,3.28,11.25a17,17,0,0,0,1.41,3.19c.36-1,.57-2.08.92-3.08,2-5.8,2.59-11.35-1.69-16.56-.74-.82-.22-2.63-.32-3.88,2.15.8,5.64,1.37,6,2.67,1.3,4.63,3.6,8.73,1.4,14.6-1.44,4,1.9,10,3.89,14.79,1.19,2.87,3.85,5.07,6,7.55-.34-3.49-.2-7.11-1.13-10.44-2.12-7.09-4.94-14-7-21.23-.7-2.5-.13-5.47-.15-8.29,1.56,2.38,3.72,4.6,4.72,7.26,2.78,7.17,5,14.5,7.5,21.73S1692,682.86,1688.51,689.33Zm41.78-117.88c-9-3.25-17.34-1.55-24.1,4.95-6,5.65-11.15,12.35-16.6,18.49-12.56,14.14-29.2,21.5-46.26,27.81C1627,628.82,1610,633.46,1593,638.22a65.22,65.22,0,0,1-16.81,2.14c-8.41.18-16.07,2.07-23,6.69-7.72,5.37-8.24,16.79-1,21.16a47.14,47.14,0,0,0,35.92,5.69c11.41-2.68,22.11-8.37,33.18-12.75,3.35-1.32,6.73-2.53,9.88-4,7-3.37,10.91-1.78,12.9,5.35l1.67,5.94c1.81,8.33,3.2,16,5.45,23.58,1.76,6.29,5.2,13.53,11.77,14.12,9.51,1,11.48,8,13.53,14,3.54,9.9,5.25,20.56,7.75,30.87,1.77,7.71,4,15.39,5.08,23.17,1.58,12.5,2.68,25.12,3.25,37.65.51,12.79,10.32,21.31,21.53,16.5,8.57-3.68,15.86-9.69,11.34-21.23-1.84-4.74-5.43-8.85-7.42-13.68-5.07-12.15-10.26-24.28-14.17-36.88-5.08-16.77-9-34-13-51a15.06,15.06,0,0,1,.79-9.06c5.58-11.17,6.79-22.39,2.33-34.21-3.06-7.72-6.12-15.44-9.06-23.2-.17-.6-.38-1.82-.15-1.89a52,52,0,0,1,8.07-3.66c20.65-6.3,34.4-20.78,44.72-38.79,5.85-10.22,1.72-19.95-7.26-23.19" transform="translate(-88.45 -76.76)"/><path id="path146" class="cls-1" d="M773.57,220c-.61,1.47-1.46,2.73-2.07,4.2-1.62,3.69-3,7.36-4.63,11,3.84-1.12,7.68-2.25,11.37-3.72,11.64-4.8,23.81-8.93,28.86-22.27,2-5.38-1.06-9.31-6.53-7.83a128.34,128.34,0,0,0-22.41,8.6c-2.4,1.25-3.14,5.7-4.59,10M596.28,92c-8.88-10.5-10.8-10.82-21.41-3.37-12,8.51-13.53,22.19-16.15,34.74-1.52,6.65,1.44,14.28,2.46,21.57a28.58,28.58,0,0,0,.93,4.33c1.6-.84,3.34-1.33,4.69-2.38,6-5.21,12.17-10.31,18.05-15.87,3.66-3.49,8.61-7.19,9.58-11.66C596.3,111,595.85,102,596.28,92M745.72,244.7c14.28-4.53,16.09-18.21,21.56-29.2,3.12-5.94.58-9.68-4.26-12.28-12.74-6.53-25.18-13.9-40.6-10.36-4.78,1.2-11.72-1-14.38,1.56-3,3.2-2.1,9.91-3,15.09a26,26,0,0,1-1.88,5c-5.87,12-11.62,23.82-17.49,35.79-.31.62-.73,1.36-1.15,2.11.36.09.74.42,1.22.38,13.85.86,27.68,7.65,41.86.4,5.5-2.8,11.41-4.79,18.14-8.51M569.85,151.05c-2.44,3.87-5.63,7.32-7.45,11.5-6.29,14.26,3.53,41.92,17.23,48.61,1.36.73,4.29.15,5.51-1,5.46-4.81,10.52-10.19,15.6-15.32,10.07-9.92,20.13-19.83,29.94-30,.89-.78.93-3.4.15-4.29-7.13-9.44-14.05-19.14-22.07-27.8-5.83-6.34-10.63-5.38-17.07.58a257,257,0,0,1-21.84,17.7m108.42,19.12c-3.76-1-7.4-1.93-11.16-2.95-7.41-2.18-15.72-6.66-22.41-2.47-10.88,7-20.55,15.94-30.12,24.51-5.9,5.32-10.1,12.53-16.13,17.74-11.61,9.91-14,17.11-5.16,29.16,13.34,17.65,31.73,26.59,54.09,26.8,9.15-.09,18.2-1.37,24.46-8.15,5.41-5.52,9.14-12.69,13.39-19.43,8.7-13.74,14.49-28.44,14.91-44.87.19-14.64.18-14.87-14.73-18.62a48.51,48.51,0,0,0-7.14-1.72m132.57,47.61c-10.61,17-28.29,18.78-44.17,24.15a77.66,77.66,0,0,0-8.52,3.73c-9.38,4.75-18.73,10-28.27,14.39-13.18,6.34-26.6,3.44-39.59-.22-6.43-1.77-11.71-.77-17.28,2.62-17.59,11-35.51,9.7-53.54.85-7.54-3.83-14.75-8-22.09-12.36-8.7-5.05-11.53-14.1-14.68-22.78-1.36-3.82-3.46-8-6.51-10.67-11.79-9.69-18.14-22.88-23.92-36.47-1.45-3.45-1.63-8.91.18-11.78,6.36-10.23,3.91-20.5.91-30.37-5.2-16.85,2.18-30.84,8.45-45.34,3-7.12,8.52-11.46,15.26-15.18,9.24-5.09,25.88,2.8,26.08,13.36.08,8.91-2,17.74-3,26.61-.13,1.44.54,4,1,4,12.65.7,17.95,11,24.85,18.92,4.28,4.78,7.24,10.86,11.52,15.64,1.31,1.57,5.89,2.41,7.37,1.47,6.51-5,12.61-1.31,18.78,0,8.81,1.83,17.46,4.62,26.28,6.45,10,2,14.88,6.6,16.47,16.58.72,4.82,2.17,6.73,7.88,5.23,19.82-5.07,37.41,1.21,53.58,12.23,6.52,4.49,12.5,3.45,18.83.71.45-.27.64-1,1.09-1.27,7.83-3.45,16.17-7.76,24-1.46,7.61,6.32,2,13.64-1,21" transform="translate(-88.45 -76.76)"/><path id="path156" class="cls-1" d="M657,964.28c.24.73.36,1.82.85,2a9.74,9.74,0,0,0,4.14.36c.6,0,1.09-1,1.7-1.58-1.46-.25-2.92-.49-4.26-.73H657M674.68,943c.61-1,1.1-1.94,1.71-2.92.6,1.46,1.7,2.92,1.82,4.51,1,14.23,1.7,28.47,2.56,42.7.48,7.67,3.77,10.59,9.36,8.28a136.15,136.15,0,0,0,14.73-7.06c3.4-1.82,7.3-4.13,6.2-8.88-2.18-9.61-5.11-19-7.54-28.48a147.48,147.48,0,0,1-3.16-16.3c-.12-1.34,1.94-3,2.92-4.62,5.47,4.62,14.23-1.1,19.1,6,.49.73,2.44,1,3.29.61a3.36,3.36,0,0,0,1.21-3c-4.5-16.19-21.17-30.18-40-26.17-12.9,2.8-22,10.47-29.69,20.2-5.72,7.43-10.71,15.7-6.69,25.92.85,2.19,2.8,5.23,4.5,5.36,2.31.24,6.33-1.22,7.3-3,2-4.38,4.5-7.54,8.76-9.49,1.22-.61,2.07-1.94,3.65-3.53M652.42,925.1a63.46,63.46,0,0,1,20.32-18c13.74-7.79,35.28-8.4,47.45,5.59,4.63,5.36,8.76,10.59,10.95,17.41,2.8,8.76-.61,13.87-9.85,13.38-4.26-.24-8.4-2-12.66-3-.61-.12-1.82-.37-2-.12a3.09,3.09,0,0,0-.36,2.31c2.68,9,5.72,17.89,8.15,26.89,3.77,13.51,2.92,19.1-10.58,25.68-4.87,2.43-10.47,3.4-15.21,5.84-5.85,2.79-9.38-1-11.08-4.51-2-3.77-1.34-8.88-1.7-13.38-.49-7.55-.73-15.09-1.34-22.63-.12-.86-1.46-1.59-2.31-2.32-.85,1-2,1.71-2.44,2.8-1.33,4.14-1.82,8.89-6.69,10.47-2.8,1-5.47,1-8-1.58-7.42-8-13.38-16.92-10.59-28.36,1.34-5.72,5-10.83,7.92-16.42" transform="translate(-88.45 -76.76)"/><path id="path154" class="cls-1" d="M636.22,907.63l-4.33.39c.52.66,1.44,2.24,1.57,2.11,1.45-.66,2.76-1.58,2.76-2.5m-46.64,44c6.57,2.1,9.73-2.1,11.7-7.09s2.89-10.25,4.2-15.37,3.29-9.86,3.68-14.85c.53-7.88.79-15.5,10-18.65a2.41,2.41,0,0,0,1.44-1.32c1.44-4.33,2.1-1.31,3.15.26,1.19,1.84,2.89,5,3.94,4.86,6.7-.92,10.64,2.37,14.33,7.1.39.53,3.67,0,3.94-.66,2.76-9.46-5.39-31.27-14.19-36.26-9.46-5.25-19.45-8.27-31-7-16.68,2-26.27,13.27-36.13,24.83-.78.92-.78,2.5-1.18,3.81a12.78,12.78,0,0,0,3.81.52c7.49-.78,15-1.83,22.47-2.49,1.18-.13,3.28.92,3.67,2,3.55,10.77-.52,19.57-6.83,28.24a50.73,50.73,0,0,0-8.54,18c-2.1,8,6.18,9.73,11.56,14.06m39-90.91c13.41,7.36,21.29,17.87,22.73,32.84.4,4.21,1.58,8.41,1,12.48a10.41,10.41,0,0,1-4.73,7c-9.06,4.73-17.34,3-24.56-3.95a70.82,70.82,0,0,0-5.92-4.72c-.52,2.62-1.44,5.38-1.31,8,.92,16-7.36,29.17-13.27,43.09-1.44,3.29-14.32,3-18.52,0-2.11-1.58-4.47-2.89-6.57-4.46-4.08-2.9-7.75-6.57-6.18-11.57a165.68,165.68,0,0,1,9.07-21.8c2.76-5.92,6.17-11.57,9.19-17.22a12.14,12.14,0,0,0,.27-2.36,15,15,0,0,0-2.37.39l-11.43,3.94c-6.17,2-14.45.53-17.08-3.67-3.15-5.13-1.31-10.25,1.71-14.45,8.28-11.3,17.08-21.68,31.4-25.89,11.3-3.15,22.2-2.36,33.11,1.45,1,.39,2.1.39,3.41.92" transform="translate(-88.45 -76.76)"/><path id="path20" class="cls-1" d="M1491.84,882c25.31-4.44,50.53-8.92,76.45-13.72,12.08-3.47,23.7.25,30.65,10.06a2.09,2.09,0,0,1-.66,1.48c-5.86.59-11.62,1.57-17.38,1.62-14,.14-27.74,1-41.27,5a130.85,130.85,0,0,1-16.8,3.45c-6.52,1.16-13.21,1.56-19.83,2.68-5.29.92-10.49,2.56-15.75,3.72-.89.25-2.49-.11-2.81-.81-1.61-2.77,4.07-12.86,7.4-13.47Zm7.68,16.86c5.91-1.38,11.9-2,17.86-2.94,5.22-.72,10.74-.75,15.81-2.33,15.17-5,30.68-6.83,46.55-6.83,3.78,0,5,1.15,5.38,4.41,1.17,9.28,2.24,18.52,3.55,27.74s1.44,9.16-7.83,10.91c-1,.2-1.87,1-2.93,1.1-3.63.49-7.05-.53-8.5-4.06-3.23-7.75-9.63-10.34-17.18-11.06-6.67-.62-19.3,4.94-19.63,12.06-.4,8.25-5.44,9.14-12.56,8.81-5.7,2-9,.26-11-5.58-3.19-9.1-7.17-17.93-10.49-27-.6-1.48.26-5.07,1-5.25Zm25.65,42.58c1.54-.12,3.07.1,4.47,0,4.14-.31,6.72-2,6.39-6.72-.11-1.88-.34-4.38.72-5.37,4.41-4.46,9.2-9.36,16-8.56,5.61.69,10.51,3.31,13.15,9.23,1.15,2.49,4.16,5.21,6.68,5.57,4.18.51,8.64-.37,12.74-1.51,1.15-.31,3.1-.83,4.57.17a4.38,4.38,0,0,1,1.61,2.69c1.12,4.42,2.29,10,2.82,12.66-6-.54-10.7-1-14.5-1.57a6.9,6.9,0,0,0-4.5.61,6.75,6.75,0,0,0-3,6.38c.19,6.63-4.69,9.88-9.15,11.68-5.67,2.28-13.52,4.55-17.78-2-4.61-7.1-10.52-7.91-17.64-7.32-1.68.19-3.35.38-5,.7-3.67.6-5.76-1.21-6.61-4.51C1513.2,942.42,1513.2,942.42,1525.17,941.44Zm.32,21.84c2.42.32,5-.69,7.42-.47,1.71.05,4.25.64,5.06,1.86,5.21,7.68,12.31,9.61,21.07,8.94,8.31-.73,17.16-8.5,18.11-17a3.47,3.47,0,0,1,.81-2.23,4.06,4.06,0,0,1,3.18-.78c1.75.14,5.35-.35,13.41-3,0,.19.06.33.08.41.42,1.28,1.24,3.74,2.31,6.83,0,0,3,10.41,7.71,27.68,1.22,4.47.15,8-4.77,9.16-7.88,2-15.91,3.55-23.63,6.1-15.23,4.83-30.74,3.24-46.23,3.15-1.5,0-4-2.61-4.36-4.37-2.08-9.62-3.61-19.49-5.44-29.14-.88-4.46-1.28-8,5.27-7.13Zm43.19-100.59c-2.32,2-5.94,1.49-6.88,1.36-4.07-.57-4.7,1.35-35.07,6.58-6.71,1.16-16,2.67-27.24,4.23a84.5,84.5,0,0,1,11.16-7.06c7.24-3.84,26.93-4.31,50.48-9.41,2.75-.59,6,1.19,9,1.83A4.65,4.65,0,0,1,1568.68,862.69Zm-85.77,18.89c-1.06,3.17-2.35,6.37-3.55,9.6-1.88,5.4.88,9.76,6.58,9.9,3.75.13,6,1.53,7.54,5.09,7.37,16.17,13.83,32.58,17.23,50.16,2.77,14.59,6.2,29,8.87,43.51.78,4.42-.51,8.54,4.5,11.77a17.48,17.48,0,0,0,13.05,2.64c21.72-4,43.43-8.67,65.17-13.06,5.08-1,7.94-5,8.28-10.27.68-9.64-3-18.11-5.76-26.73-5-15.17-9.57-30.43-11.14-46.41-.45-5-1.28-9.9-1.29-14.85-.06-8.87-.71-18.31,11-21.21.62-.11,1.44-2.34,1-2.83-4.85-7.08-10.49-13.3-18.82-16.26-.2-.08-.37-.25-.51-.19-6.85,1.15-9.85-3.18-13.45-8.07-1.47-1.93-6.94-1.76-10.37-1.19-8.19,1.34-8.52,1-7.85-7.38.43-4.9-.32-10-.81-14.9-.22-2.84-.47-4.66,3.45-3.44,8.54,2.7,17.14,4.95,25.73,7.21,1.49.32,3.19-.55,4.94-.93-.91-1.26-1.4-3-2.58-3.6a71.45,71.45,0,0,0-10-3.94c-5.23-1.7-10.51-3-15.75-4.67-7.45-2.52-12,.84-11.7,8.67.32,6.9-.21,13.94.59,20.79.45,4.08-1.68,4.56-4.29,5.09-14.14,2.82-28.35,5.5-42.37,8.6-3.39.75-3.69,5.3-3.69,5.3a14.22,14.22,0,0,0-.9,5.58,38.73,38.73,0,0,1-6.23,1c-1.66.12-3,.1-4.36,1a7.15,7.15,0,0,0-2.56,4" transform="translate(-88.45 -76.76)"/><path id="path22" class="cls-1" d="M1111.41,185.85c-4.85.11-11.11-1.51-13.16,3.89-2.26,5.82-5.82,8.94-11.21,10.67-3.34,1.08-1.08,2.7-.11,2.91a41,41,0,0,0,9.6.76c10.78,0,18.76-6.58,27.06-12.3,1.08-.75.87-3.45,1.3-5.28-1.4,0-2.91-.11-4.31-.11a70.58,70.58,0,0,1-9.17-.54m77.1-27.49c-.11-3.24,1-7.33-3.78-8.09a167.65,167.65,0,0,0-19.41-1.94c-1.72-.11-4.63,1.62-5.28,3.23s.22,4.53,1.29,6.37c1.94,3.55,4.75,6.68,6.58,10.24,1.51,2.8,4.1,3.56,5.82,2.37a89.1,89.1,0,0,0,14.78-12.18m2.15,6.47c-4.31,3-8.51,6.25-12.94,9.06-2.58,1.72-5.06,3-4.42,6.9,1,5.71-.54,9.48-7.22,10.89-1.62.21-2.37,5.5-3.45,8.51,1.94-.21,4.42.44,5.93-.54,8.84-5.49,17.68-11.1,26.2-17.14,3.24-2.37,5.82-5.93,4.1-10.46-1.3-3.56-1.73-8.52-8.2-7.22m-95.42,48c1.83,10.24,4.31,11.43,14.34,10.57,13.26-1.08,24.8-7.55,36.66-12.83.54-.22,1.29-1.41,1.18-1.62a5.42,5.42,0,0,0-1.94-1.51c-4.31-2.7-9-4.75-12.72-8.09-3.45-3.13-5.82-3.13-9.49-.75-7.76,5.17-15.63,10.35-25.45,11.1-1.18.11-2.15,1.73-2.58,3.13m42-16.17c4.1,2.69,8,5.6,12.29,7.87,3.67,1.83,6.9,1.29,7.66-3.67a25.05,25.05,0,0,1,1.08-5c1.5-3.77-.54-10.35,5.71-10.67,5.07-.11,4.64-2.91,3.67-5.39a189.11,189.11,0,0,0-8.41-17.47c-1-1.73-2.48-3.45-5.07-1.19a9.15,9.15,0,0,1-5,1.94c-9.38.76-13.37,3.88-15.75,12.72a7.36,7.36,0,0,1-.53,1.41c-4.53,8.41-3.67,13.26,4.31,19.41m1.08-60.39c-.44.33-.76.86-1.19,1.08-8.73,4.1-18.11,7.12-26,12.51-11.75,8-22.53,17.57-33.53,26.74-5,4-3.88,15.64,1.62,18.87a5.71,5.71,0,0,0,3.77,1.08c4.42-1.08,8.2-2.81,10.24-7.55,2.81-6.58,10.14-10.35,16.61-8.41,11.43,3.13,17.25-.11,20.49-13.16.32-1.72,1.61-3.88,3-4.52a42.33,42.33,0,0,1,11.86-3.89c4.74-.53,7.33-2.69,8.84-7.11a15.54,15.54,0,0,1,3.67-5.93c4.42-4.64,10.24-2.48,15.2-1.73,4.1.65,6.47.33,8.2-3.34,1.18-2.59-.44-10.57-2.48-11.75a3.51,3.51,0,0,0-1.84-.11c-6.15,1-12.18,1.72-18.22,2.91-6.47,1.29-12.83,2.91-20.27,4.31m36.12-17.79c-3.78-5.93-6.47-13.26-11.65-17.57-10.46-8.74-22.75-14.67-36.66-15.21-10.13-.32-20.27,1.08-30.41.86-13.8-.32-23.29,8-32.88,15.53-8.09,6.36-10.89,16.39-13.48,26.1-1.51,6.25-3.88,12.72-3.45,18.87.86,12.61,7.76,22.21,18.76,28.57,1.83,1,5.61,1.08,7.12-.11,5.93-4.74,10.89-10.67,16.93-15.31,9-7.22,18-15.2,28.14-20.38a125.5,125.5,0,0,1,52.19-14.45c3.45-.11,6-1.62,5.39-6.9m-128.32,3.77c4.32-13.69,9.39-26.09,23.94-31.37,4.75-1.73,8.52-5.83,13.16-7.23,6.79-1.94,13.91-2.69,20.91-3.45,12.3-1.29,24.48-.11,36.45,2.37,6.15,1.41,11.75,5.29,17.47,8.41,10.35,5.72,17.57,14.35,20.81,25.67,1.62,5.5,3.24,10.78,6.36,15.63.22.33.65.65.65.87-2.59,9.49,6.47,14.88,8.19,23,.65,2.7,5,4.42,6.8,7.23,6.47,9.92,5.6,18.33-4,25.34-8.52,6.14-17.26,11.86-26.21,17.46-3,1.84-6.79,2.48-10.13,3.89-11.11,4.85-21.89,10.45-33.32,14.66a83.16,83.16,0,0,1-22.43,4.1c-10.24.54-13.91-5.07-14.55-13.16-.11-1.51-.22-3.34-1.08-4.31-3.24-3.67-6.15-7.87-10.25-10s-6.79-4.63-7.22-8.84c-1-7.87-7-10.89-12.51-14.56-19.08-12.94-22-31.91-15-51,.54-1.4,1.3-2.8,1.94-4.64" transform="translate(-88.45 -76.76)"/><path id="path48" class="cls-1" d="M1114.35,135c-2-.87-4.21-1.73-5.72-3.24-1.08-1-1.18-2.8-1.72-4.31,1.4-.43,3.12-1.62,4.2-1.19a8.67,8.67,0,0,1,3.88,4c.65,1.19-.21,3-.64,4.75" transform="translate(-88.45 -76.76)"/><path id="path50" class="cls-2" d="M1136.77,116.41a37.3,37.3,0,0,1,4.32,2.59c-1.08.75-2.16,1.51-3.24,2.15a3.28,3.28,0,0,1-1.4.65c-1.62.32-3.23.54-4.85.76.11-1.3-.32-3,.32-3.89,1.08-1.07,2.81-1.51,4.85-2.26" transform="translate(-88.45 -76.76)"/><path id="path52" class="cls-2" d="M1176.67,94.84c1.29-1.51,2.59-3.12,4-3.34s3,1,4.53,1.62c-.75,1.08-1.3,3.13-2,3.13a15.63,15.63,0,0,1-6.47-1.41" transform="translate(-88.45 -76.76)"/><path id="path54" class="cls-2" d="M1148.64,84.06c-2.05,0-3.46-.11-5-.11,1.08-1.72,1.83-3.88,3.34-5.06.86-.54,3,.75,4.64,1.18a30.38,30.38,0,0,1-3,4" transform="translate(-88.45 -76.76)"/><path id="path56" class="cls-2" d="M1120.6,92.69c5.72-.22,2.37,3.66,3,5.6.11.22-2.26,1.3-3.45,1.94a24.23,24.23,0,0,1-.75-4.74,4.2,4.2,0,0,1,1.18-2.8" transform="translate(-88.45 -76.76)"/><path id="path58" class="cls-1" d="M1150.47,147.89c-1.51-3-.76-4.42,2.26-3a11.33,11.33,0,0,1,4.42,3.34c1.41,1.62,2.16,3.67,3.13,5.5-2.26-.54-4.74-.86-6.79-1.94-1.19-.54-1.83-2.37-3-3.89" transform="translate(-88.45 -76.76)"/><path id="path60" class="cls-1" d="M1120.6,159.54a15.08,15.08,0,0,1,3-2.91c1.19,2.59,2.8,5.07,3.23,7.76.22,1.4-1.61,3.24-2.48,4.85-.64-1.4-1.29-2.69-1.83-4.09a38.12,38.12,0,0,1-1.94-5.61" transform="translate(-88.45 -76.76)"/><path id="path62" class="cls-1" d="M1181.74,132.8a9,9,0,0,1-1.62,3c-2.26-2.7-4.42-5.39-6.68-8,1-.54,2.48-1.73,2.69-1.51,1.94,1.94,3.67,4.1,5.61,6.47" transform="translate(-88.45 -76.76)"/><path id="path64" class="cls-1" d="M1165.89,141.21c-4.75,1.19-3.24-2.91-4.1-5.07-.11-.43,1.62-1.62,2.48-2.48.54,2.37,1.08,4.64,1.62,7.55" transform="translate(-88.45 -76.76)"/><path id="path66" class="cls-2" d="M1215.17,116.63c-2.48-.76-4.86-1.19-7.12-1.73-.11-.11.11-1,.11-1.4a46.69,46.69,0,0,1,7.87.86c1.94.43,1.83.86-.86,2.27" transform="translate(-88.45 -76.76)"/><path id="path68" class="cls-2" d="M1191.44,125.79a42.29,42.29,0,0,1-5.07-3.34c.55-.65,1.19-1.62,1.84-1.62,3.56-.32,3.13,2.48,3.23,5" transform="translate(-88.45 -76.76)"/><path id="path70" class="cls-1" d="M1183.14,167.09a23,23,0,0,1,4.85-5.28c.11-.11,2.7,1.83,2.48,2.15a47.73,47.73,0,0,1-3.34,6.15,25.4,25.4,0,0,1-4-3" transform="translate(-88.45 -76.76)"/><path id="path72" class="cls-1" d="M1195,152a24.68,24.68,0,0,1,4.75-3.23c.21,1.51,1.07,3.34.43,4.42-.86,1.83-2.7,3.12-4.1,4.64-.32-.33-1-.65-1.08-1-.11-1.51,0-2.92,0-4.86" transform="translate(-88.45 -76.76)"/><path id="path74" class="cls-1" d="M1183.36,154.37a12.27,12.27,0,0,1-3.45-1.41c2.15-1.4,4.2-2.91,6.46-4.1.44-.21,1.41.76,2.16,1.19a36.63,36.63,0,0,1-2.8,4c-.32.43-1.4.11-2.37.33" transform="translate(-88.45 -76.76)"/><path id="path18" class="cls-1" d="M234.28,404.09c-3.74.6-8.07,1.5-9.71-5.07-1.34-5.08-5.82-9.41-8.06-14.49-2.55-6.27-.6-8.36,5.82-8.66,9.41-.45,18.67-.75,27.93-1.64,7.46-.6,13,.59,15.68,8.81,1.94,6.57,5.37,12.69,8.21,19C260.26,399.61,247.27,401.86,234.28,404.09ZM247,459.65c-.3,2.69-4,5.82-6.87,7.17-11.8,5.07-24.49,9-34.2,18.22-.15.15-1.94-.75-1.94-1.05,1.2-14,2.39-28.23,3.59-42.41.59-5.53,1-10.9,1.64-16.43,1.19-10.15,1.64-19.41,2.24-28.67a9,9,0,0,1,.74-2.69c1.05.45,2.54.75,3,1.64,1.49,2.54,3.14,5.23,3.59,8.07,1,6.42,4.62,8.36,10.6,8.21,14.33-.15,15.23-.15,17.62,15.08,1.64,10.76.75,22,0,32.86Zm-50.48-5.53c-.74,8.81-.89,17.48-1.49,26.29-.45,6.12-3.73,7.17-9.26,5.07-10.75-4-21.5-7.91-32.4-11.65-4.19-1.49-8.37-3.13-12.7-3.73-7.17-1.19-10.45-5.37-11.35-12.09-1.94-13.3-4-26.74-6-40-.6-4.63,1.34-8.06,6.27-7.76,13.89.89,27.63,2.09,41.37,2.83,5.22.45,10.6.9,15.68-.14,2.68-.75,5.23-4.34,6.72-7.17,3.43-6.27,6-13,9.26-19.42.59-1.19,2.54-1.79,3.88-2.69a38.55,38.55,0,0,1-.45,4.34c-.59,1.64-1.34,3.28-2.09,5.07-1.64,13.44-3.28,25.54-4.78,37.64-1,7.76-1.94,15.53-2.69,23.44Zm-83.83-54.3a3.66,3.66,0,0,1-2-.06c-1.79-.74-5.07-2.39-5.07-2.39,1.71-4.08,3.48-8.05,5.27-12,.48-6.16,4.15-12.6,7.09-17.68a43.38,43.38,0,0,1,3.63-5.11c1.24-1.6,2.26-3.7,4-4.86a7.23,7.23,0,0,1,1.52-.77c1.35-1,3.33-1.26,6.13-.64,14.49,3.29,29.28,6,43.76,9.12,5.23,1.19,10,3.43,15.08,5.22,5.53,1.94,6.57,6,4.33,10.9-3.28,7-7,13.89-10.75,20.76-.75,1.2-2.68,1.79-4,2.69-9.41-.3-17.92-1.2-26.58-2.24-6.17-.76-12.41-1.21-18.57-2a3.21,3.21,0,0,1-1.91.58c-5.7,0-11.34-.15-17-.46a12.32,12.32,0,0,1-4.81-1Zm17.23-79.36c3.58.15,7-.89,10.6-1.34,9.11.3,16.88.3,24.64.75,6.42.45,16.88,14.33,14.64,20.16-1.05,2.24-5.68,3.73-8.81,4.33-4.33.6-9,.3-13.44.15-5.38-.15-10.31.15-14.49,4.63-3.29,3.43-7.47,1.49-9.41-3.44-2.24-5.82-5.08-11.2-7.17-17C125.11,325.24,120.93,320,129.89,320.46Zm64.81,25.69c1.05,0,3.29,3,3,3.73-.9,1.95-2.54,4.19-4.48,4.93-13.14,4.63-26.58,2.39-40,.9-.44-1.79-.14-3.59.16-3.59,4.47-.29,9.11.45,13.43-.29,4.64-.75,9.12-3,13.75-4a75.43,75.43,0,0,1,14.18-1.64Zm5.83,19c-1.35.14-.45,5.37-3.74,1.49-1.49-1.64-4-2.09-6-3.14a.88.88,0,0,1-.15-.6c.15-.14.45-.29.6-.44a9.35,9.35,0,0,0,3.73-1.49,41.83,41.83,0,0,0,4.33-2.39C199.78,360.78,200.08,363,200.53,365.12Zm15.53-.15c1.49,1.19,2.83,2.54,4.33,3.88-2.24.9-4.63,1.64-6.87,2.39-.15-2.24-.45-4.33-.6-6.57C214.42,364.22,215.46,364.37,216.06,365Zm-1.64-16.58a9.33,9.33,0,0,0,.29-2.09c.45.15.9.15,1,.45,4.33,3.13,9,6.12,12.69,9.85,2,2.09,4,7.32,3.14,8.22-3.44,3.28-6.42.3-9-2.39-3.59-4.93-11.5-6.42-8.21-14Zm6.71-14.19c5.23.6,10.31,1.94,15.54,2.84,7.61,1,15.53,1.94,23.29,3-.74,6.87-1.49,13.29-3.88,19-3.29,7.47-12.4,8.22-16.13,1.2-4.78-9-10.45-15.53-20.91-17.48-1.34-.29-2.09-4.48-3.13-6.86,1.79-.6,3.58-1.8,5.22-1.65ZM283,397.52c-2.39-5.52-4.78-11.2-8.51-15.83-8.51-10.9-10.75-21.8-5.23-34.79,2.24-5.38,1.2-10.9-6.57-13.29A114.75,114.75,0,0,0,225,328.08c-9,.15-9.26-.6-8.07-9.41,1.35-10.45,1.5-20.9,1.8-31.36,0-1.34-2.54-2.69-3.89-4-1.19,1.19-3.13,2.39-3.28,3.73-.9,6.57-1.2,13-1.64,19.57-.6,9.55-.9,19-1.65,28.52-.15,2.24-1.94,4.33-3,6.42-.89-2.24-2.68-4.48-2.68-6.72-1.2-19.86-2.09-39.72-3.29-59.74-.15-2.23-2.84-4.48-4.18-6.71-1.05,2.09-3.14,4.32-3,6.42.9,19.71,2.24,39.42,3.44,59.14,0,1.94-1,4-1.5,6.12-1.79-.9-4.48-1.35-5.37-2.84-1.94-2.84-2.54-6.42-4.33-9.41-4.48-8.36-7.47-19-19.56-19-14.64-.15-29.43.44-44.06,1.49-8.21.45-9.86,4.63-6.42,12.24,2.09,4.78,4.63,9.41,6.42,14.34,1.34,3.59,3.14,7.77,2.24,10.9-1.49,4.93-4.78,9.41-7.47,14-5.22,9.26-11.2,18.22-16,27.63-6,11.35-3.13,15.23,9.26,16.58,2.54.14,6.27,3.73,6.72,6.12,3.29,18.66,5.68,37.48,8.81,56.6,2,3.73,2.69,8.81,4.93,9.7,5.68,2.24,12.25,2.39,18.37,3.44a76.81,76.81,0,0,1,10.15,2.39c8.37,2.69,16.43,6,24.94,8.36,4.78,1.34,10.76,3.29,14.94,1.79,13.14-4.93,25.54-11.64,38.53-16.87,10.9-4.48,20.61-8.51,20.31-23.3-.15-11.2,2.69-22.4,4.18-33.6,1-8.51,3.73-11.2,12-11.95,7-.59,12.39-6.12,10.3-11.2" transform="translate(-88.45 -76.76)"/><path id="path92" class="cls-1" d="M1323.48,813.6c-17.57,32.78-39.09,63.38-66.54,88.85-19.55,18.16-40.47,34.16-64.17,46.8-32,17-63,11.45-92.79-3.36-15.21-7.5-28.83-20.34-26.07-41.07.4-3,1.58-6.71,3.75-8.29,9.08-6.32,18.37-12.44,27.84-18.17,14.81-8.69,30-16.78,44.82-25.07,29.81-17,55.88-38.9,79-63.78,10.86-11.84,19.54-25.86,27.84-39.68,3.35-5.53,3.75-13,4.15-19.75,1.18-15,6.71-25.27,26.85-22.5,20.53.39,31.79,10.26,38.7,26.85,4.74,11.25,9.47,22.31,10.07,35.34.59,16.58-6.32,30.6-13.43,43.83Zm-267.34,73.85c-1.18-.4-.2-8.1,1.19-12.05,2.37-6.91,7.7-13.43,8.09-20.14.4-7.7,4.74-11.85,9.48-15,6.32-4.35,14-7.11,21.32-10.27,33-14,54.5-41.07,76.41-67.53,13-16,26.06-32.18,39.49-47.78a74,74,0,0,1,13-11.45,80.46,80.46,0,0,1,7.25-4.51c-.12.32-.24.63-.34,1-6.12,19.94-20.73,34.35-31.39,51.13-7.5,12.05-18.56,21.92-28,32.78-12.44,13.82-25.07,27.64-37.71,41.66l-2.76,2.76a14.45,14.45,0,0,0,4.93-.59,399.79,399.79,0,0,0,46.6-44.62c27.06-30.52,40.58-45.78,46.4-60.81,3.24-8.39,11.59-19.17,20.14-29,2.56-3,12.24-3.16,16-.59,5.53,3.75-.19,8.29-3,12.64-4.54,7.5-10.27,15.59-11.06,23.69a78.65,78.65,0,0,1-12,34.75c-13.43,21.13-31.59,37.51-50.94,52.52-19.94,15.2-41.07,29-62.19,42.65-18,11.25-36.53,21.52-55.29,31-4,2.17-10.86,0-15.6-2.17ZM1345.79,767c-1-11.65-6.71-22.7-10.46-34-8.1-24.09-26.07-34-50-35.35-5.53-.2-8.48-1.77-10.46-7.5-1.18-3.35-5.73-7.11-9.28-8.1-11.65-3.27-27,3.68-32.39,14.68a41.84,41.84,0,0,0-11.44,2.11c-7.94,2.65-13.37,8-23.3,17.37-7.11,6.72-12.64,15-18.76,22.71-11.06,13.43-21.32,27.64-33,40.48-9.48,10.46-19.94,20.53-31.59,28.43-13.82,9.28-29.42,16.18-44.23,23.89-7.31,3.94-13,9.08-12.83,18.16.2,8.1-2.37,14.42-7.7,20.73-10.07,11.65-5.73,24.68,5.72,27.84,8.49,2.37,10.47,5.73,9.88,13-1.19,14.42,6.91,23.89,16.58,32.78,11.65,10.66,25.87,15.6,41.07,19.75,20.33,5.32,40.47,4.14,60-.4,11.06-2.57,21.32-10.47,31.2-17.38,29.41-20.33,56.66-43,78.58-71.87,18.36-24.08,34.75-49,46.2-76.8,3.95-9.48,6.91-20.73,6.12-30.61" transform="translate(-88.45 -76.76)"/><path id="path94" class="cls-1" d="M1185,826.62c4-3.56,7.7-7.7,12.24-10.07,8.09-4.35,12.83-10.47,16.38-18.76,2.57-5.53,7.51-12.24,12.64-13.82,8.3-2.37,12-7.31,15.6-14.22,4.34-8.29,9.87-16,14.81-23.89,1.18-1.78,2.56-3.55,3.75-5.33-2.76-.4-6.32-2-7.9-.79-4.34,3.36-8.88,7.11-11.25,11.85-5.73,11.84-11.85,22.51-23.9,29.42-5.13,2.76-7.89,9.47-11.84,14.41-3.75,4.54-7.11,9.48-11.45,13.43-4.54,4.34-11.45,6.71-14.42,11.84-5.92,9.68-13.62,11.45-23.49,10.47-4.35,3.55-8.89,6.12-12.83,9.47-6.32,5.73-10.67,15.6-19.95,15.4-11.05-.39-18.16,4.35-25.07,11.65-.59.79-2.37.59-3.16,1.39-2.17,2-4.15,4.14-6.12,6.12,3.55.39,8.69,2.37,10.46.59,8.49-7.7,18-11.26,29.22-11.65,2.77-.2,5.34-3.16,7.7-4.94,9.68-6.91,18.37-16.19,29-19.74,8.29-3,13.62-7.7,19.55-12.83" transform="translate(-88.45 -76.76)"/><path id="path96" class="cls-1" d="M1160.11,901.84c-.79,1-.4,3.36,0,4.74a68.94,68.94,0,0,0,3.16,6.71c1.58-2.17,3.16-4.34,5.13-7.11a57.6,57.6,0,0,0-.59-10.26c-2.57,2-5.53,3.55-7.7,5.92" transform="translate(-88.45 -76.76)"/><path id="path98" class="cls-1" d="M1223.67,904.5a33.21,33.21,0,0,0-2.43,2.81l4.29.9a28.79,28.79,0,0,0,4.57-2.35,28.07,28.07,0,0,0-4.27-2.32c-.61-.16-1.61.5-2.16,1" transform="translate(-88.45 -76.76)"/><path id="path100" class="cls-1" d="M1293,752v10.86c1.38,0,3.75.2,3.75-.2a100.71,100.71,0,0,0,2.17-10.66c-2-.4-3.94-.79-5.92,0" transform="translate(-88.45 -76.76)"/><path id="path102" class="cls-1" d="M1318.26,793.64c-.4.4,1.58,2.37,2.57,3.56,1.58-2.18,3.55-4.15,4.93-6.52.4-.59-.59-2.17-1.38-3.95a25.83,25.83,0,0,0-6.12,6.91" transform="translate(-88.45 -76.76)"/><path id="path104" class="cls-1" d="M1284.89,867.68c1-.59,2.57-1.18,2.57-1.58a13.41,13.41,0,0,0-2.57-5.33,41.78,41.78,0,0,0,0,6.91" transform="translate(-88.45 -76.76)"/><path id="path106" class="cls-1" d="M1237.5,840a11.85,11.85,0,0,0,0,5c1.82-.44,4.73-.87,4.73-1.16-.73-1.43-2.55-2.73-4.73-3.88" transform="translate(-88.45 -76.76)"/><path id="path40" class="cls-1" d="M1411.34,279.77c-11.41-.84-22.82-2.69-34.06-4.36-1.34-.17-3.35-3-3-3.86,2.18-6,4.87-11.91,7.38-17.78,13.59-2.19,23.82,1.67,31.88,10.23a15.43,15.43,0,0,1,3.69,9.9C1417.21,276.08,1413.18,279.94,1411.34,279.77Zm-1.51,47.47c.16,1.68-1.51,5.21-2.18,5-9.4-.17-19-.67-28.52-1.51-2.69-.17-8.06-11.91-6.71-14.1.83-1.17,2.85-2.34,4-2.17,5,.67,10.07,1.84,15.27,3C1400.1,318.69,1408.48,317.35,1409.83,327.24Zm-9.9,44.13c5.2,1.84,5.87,8.55,2.18,12.91-2.68,3.19-15.44,6-20.47,3.69-8.05-4-12.91-12.41-11.74-20.13,11.07-3.52,20.64.17,30,3.53Zm5.53,59.72c1.51,9.73-6.71,6.71-12.07,7.21-9.4-1.17-17.12-1.68-24.5-3.69-2.35-.67-4.36-5.87-4.36-9.06,0-1.84,4-5.37,6.21-5.37,8.72-.16,17.61,0,26,1.85C1400.27,422.7,1405,427.56,1405.46,431.09Zm-11.57,45c5.63,1.4,6.3,5.87,4.47,10.95-11.29,4.15-20.91,2.91-24.26,1.1a26.54,26.54,0,0,1-7.24-6l-.15-.19c-1.51-1.85-2.68-4.7-2.35-6.88.17-1.34,3.69-3.19,5.37-3a145.42,145.42,0,0,1,24.16,4Zm-5.54,54.52c6.38,5.71,7.55,11.58,3.69,17.95-2.35,3.86-15.77,6-21.3,2.69-4.53-2.69-10.57-7.05-11.24-11.41-2.35-13.76,7.21-19.13,21.3-13.42,2.69,1.17,5,2.85,7.55,4.19Zm34.39-267.07c-3.35-7.89-10.23-11.58-17.61-14.94-2.68-1.17-7.05-4.86-6.71-6.2,5.7-18.12,3.86-36.74,4-55.2,0-1.84-1.68-3.69-2.52-5.53a61.61,61.61,0,0,0-4,5c-.5.84,0,2.18,0,3.35-.67,14.27-.5,28.53-2,42.79-.5,4,1.68,10.23-5.54,12.74-13.59,4.53-18.11,13.43-18.62,28.52-.33,6.72,4,9.74,7,9.4,11.4-.67,11.24,6,10.74,13.92a6.74,6.74,0,0,0,0,3.19c5.19,10.57-2.69,8.22-8.23,8.56-3.35.33-8,.33-9.73,2.35-4.19,5-.57,20.15,9.4,26.17a19.25,19.25,0,0,0,4.7,2c4.62,12.38,3.65,17.11,1.5,19-2.5,2.15-6-.1-11.74,2.68-1.2.59-5.56,2.43-7.55,7.22-3.69,8.89-1.17,16.1,6.72,21.13,5.87,3.53,11.23,7.38,9.89,15.44a2.71,2.71,0,0,0,.34,2.34,40,40,0,0,0-.54,6,38.55,38.55,0,0,0-10,1.08c-6.54,1.51-10.91,3.36-11.58,10.4-1,11.41,1,15.27,10.24,16.61,4.7.67,6.71,3.36,7.55,7.22,2.18,8.89-.84,17.27-6.38,17.94-6.54.84-11.74,3.36-12.92,9.9-1.51,7.72,2.69,12.92,9.73,15.27,5.54,1.84,7.89,5,6.88,10.9-.33,1.85.17,3.69.5,5.71,2.19,11.57,1.85,11.91-9.22,12.08-3,.16-7,.33-9.06,2.17-8,6.88-4.7,26.68,5,31.21,7.72,3.52,9.06,9.23,7,16.61-.34,1.51-1.18,3.18-1,4.53.5,2.51,1.68,5,2.35,7.38,1-2,2.18-4,3-6.21.67-1.84.33-4.53,1.51-6,2.52-3.35-1.34-10.06,6.21-11.24,10.4-1.67,18.28-8.89,18.45-17.95a20.89,20.89,0,0,0-12.75-20c-7.21-2.85-7.38-4.7-5.87-11.75,1-5.24.37-10.64,3.4-13.61,2.19-2.15,4.26-.56,8-2.32a15.78,15.78,0,0,0,7-7.33c2.57-2.15,5.15-4.47,5-6.59-.33-4.7-3.85-8.23-9.73-9.57-4.19-.84-10.06-3.52-11.23-6.71-4.2-12.08,1.84-19.46,14.93-19.79,5.37-.17,10.23-1.85,11.4-7.89,1.68-8.05-1.84-15.1-7.71-17.28a73.79,73.79,0,0,0-16.55-4.45c.43-2.67.74-4.83,1-6.29.92-6.57,1.29-9.14,3.31-11.71a8,8,0,0,1,3.39-2.38c5-2,9.57-6,13.6-9.89,7.71-7.55,5.36-15.44-5.21-19.13-5.87-2-12.41-2.18-10.57-12.75,2.18-11.91.67-12.58,12.92-12.08,8,.17,11.58-3.86,12.58-10.9,1.18-7.39-4.86-15.27-11.74-16.11-10.74-1.34-11.58-2.51-11.58-13.42v-5.87c0-6.21,3.53-9.06,9.57-7.05,6.71,2.35,13.08,2,17.61-3.69,4.7-5.7,4-12.41,1.34-18.95" transform="translate(-88.45 -76.76)"/><path id="path46" class="cls-1" d="M1013.79,646.81c-7.21,14.13-14.86,28.44-23.94,41.31-9.87,14-19,25.59-37.79,48.39q-3.13,3.79-5.84,7c-1.61,1-3.22,2.08-4.76,3.26A28.16,28.16,0,0,0,937,751c-10.55,13.92-25.54,22.54-39.07,33-4.24,3.32-8.29,6.8-12.33,10.31-14.7,6.56-35.91,15.19-55.5,19.9-5.91,1.42-14.59,3.19-23.86-.49-2-.8-10.84-5.64-16.81-15.29-7-11.31-3.92-31,7.44-38.12,12.23-7.52,25.07-14.28,37.94-20.66,2-1,5.83.26,8.37,1.6,4.58,2.12,8.64,5.11,13.22,7.23,1.57.6,3.85-.68,5.78-1-1-1.64-1.8-3.74-3.12-5-2.21-1.75-5-2.83-7.17-4.73-2.05-1.69-3.33-4-5-6.07a63.28,63.28,0,0,0,6.56-.71,9.34,9.34,0,0,0,3.34-2.14c8.41-6.47,17.14-12.82,25.21-19.79,3.59-3.29,6.39-4,10.93-2.27a114,114,0,0,0,16.26,4.44c1.32.33,2.82-1.25,4.34-1.93-1.05-1.48-1.58-3.84-3-4.38-4.52-2.27-9.4-3.61-14-5.72-.63-.25-.92-3.23-.3-3.89,8.1-8.94,16.92-17.41,24.35-26.95,3.44-4.26,5.55-4.16,10.06-2.79,5.19,1.45,10.93,1.5,16.29,1.57,1.59.08,3-1.88,4.69-2.86-1.44-.92-2.87-2.36-4.43-3-4.82-1.48-9.82-2.51-14.8-4.06-.47-.18-1-3.07-.46-4,8.25-12.11,16.64-24.16,25.36-36.09.85-1.29,3.33-2.13,5.07-2,5.74,0,11.49,1,17.16,1.19,1.28,0,2.8-2.16,4.13-3.26-1.43-1.45-2.7-3.74-4.55-4.09-3.47-.79-7.32-.11-10.79-.9s-7.13-2-4.93-7.29c8.2-19.49,13.07-40.62,30.06-55.84,5.14-4.5,11-9.07,16.48-6.43,5.93,2.81,12,8.92,14.2,15,3.12,8.74,3.57,18.8,3.83,28.42.54,11.71,2.82,23.54-2.31,35-4.41,9.63-7.07,20.29-11.8,29.79ZM998.23,528.17c1.27,1.39,2.69,2.83,3.95,4.22a14.49,14.49,0,0,1-5.47-3.54A8.62,8.62,0,0,1,998.23,528.17Zm17.95-10.71c-.54,1.4-1.3,2.91-2.06,4.42l-3.39-2.39A8.87,8.87,0,0,1,1016.18,517.46Zm21.18,64.19c-.37-15.42-1-30-12.46-42-4.71-5-10.6-9.82-3-17.12,1.39-1.27,1.54-3.55,2.26-5.43,1.78-4.17.36-5.61-4.35-6-7.83-.67-15.93-3.42-21.23,5.69-.64,1.19-2.84,1.79-4.46,2.24-4.71,1.07-4.83,3.72-2.54,7.11,4.48,6.58,0,10.78-3.87,15.23-5.88,6.91-12.71,13.45-16.68,21.45-6.06,12-10.2,25.19-14.92,37.94-1,2.66-.12,6.42-1.65,8.53C942,627,929.45,644.64,916.42,661.74c-8.68,11.4-17.47,22.58-27.73,32.48-8.89,8.63-19.92,15.36-30,22.82-5.64,3.94-11.1,8.32-17.28,11.33-8.2,4-17.71,6.33-25.81,10.58-15.34,8.13-30.23,17-35.89,35.47-5,16.77,6.74,45.17,30.33,47.39,14.27,1.35,25.75-.14,44.35-7.41a167.33,167.33,0,0,0,26.37-13.1l.24,0-.06-.06.54-.33v0c.63.24,1.18-.26,1.68-.61l-.48-.19.51-.32a4.27,4.27,0,0,1,.46.16c4.67-2.35,9.4-4.84,13.38-8.17,15.89-13.31,31.77-26.62,47.32-40.42,1.2-1.1,1.77-3.08,2.3-5.13,2.53-2.07,5.29-4.46,8.18-7.2,7.4-7,12-13.21,19.59-22.49,8.48-10.4,17.18-20.9,24.44-32.31a426,426,0,0,0,25-44.49c8.62-18.26,13.84-37.46,13.48-58.08" transform="translate(-88.45 -76.76)"/><path id="path150-2" data-name="path150" class="cls-1" d="M415.76,595.91c.5-1.67,1-3.35,1.5-5.2-1.5.34-3.68.17-4.69,1.17a66.06,66.06,0,0,0-6.88,8.23,15.08,15.08,0,0,0,1.17,1.67c2.69-1.67,5.37-3.35,8.9-5.87m52.84-59.55c-2.18,1-4.19,1.84-6.21,2.85,1.51,2.85,2.19,7.21,4.53,8.55,4.36,2,8.89-.16,11.08-4.36.33-.84-2.69-3.69-4.37-5.37-.84-.83-2.18-1.17-5-1.67M550,564c.51-16.11-6.2-29.7-17.28-40.43-17.27-17.11-38.41-27.85-61.23-36.07-13.25-4.53-26-5-38.25,2-2,1.18-2.85,4.87-3.85,7.55a24.71,24.71,0,0,0,4.53,2.35c5.87,2.18,12.24,3.19,17.27,6.54,9.06,5.54,16.78,13.26,26,18.46C498,536,518.76,547.26,534,566.39c2.85,3.69,12.91,2.68,15.93-2.35m-156.85,41.1a47.56,47.56,0,0,0-4.19,7.55c-3,8.39-6,16.94-8.73,25.67-3.18,9.89-4.69,20,1.68,29.35,7.55,11.08,14.76,10.91,22.14-.33,6.55-10.23,13.76-19.63,24.5-25.67,3.52-2,6.2-5.37,9.56-7.55C453,623.93,467.93,613.69,483.36,604c9.57-6.05,20.47-10.41,29.7-17,15.43-10.73,15.77-16.27,2.35-28.85-9.06-8.39-19.13-15.78-28.86-23.49-.84-.67-2.18-.84-3.35-1.34,0,1.17-.67,2.68-.34,3.18,7.21,7.55,1.85,11.58-3.86,16.62-5,4.19-10.4,5.19-14.76,1.84-5-4-11.75-7.88-9.23-17.11,2.18-7.72,6.71-8.9,13.25-8.22a22.35,22.35,0,0,0,4.53-1c-.5-1-.67-2.35-1.34-2.68-8.72-5.54-17.28-10.91-26.17-15.94-.84-.5-3.69,1-4.19,2.18-4.7,10.4-8.89,20.8-13.25,31.37-2.52,6.21-3.86,13.09-7.39,18.62-4.86,8-11.4,14.77-16.77,22.48-2.85,4-4.53,8.73-6.55,13.09a15.72,15.72,0,0,0-.67,4c1.35-.83,3.19-1.34,4-2.51,2.52-3.36,3.86-7.89,7.05-10.24a19.4,19.4,0,0,1,11.74-3.52c1.68,0,4.86,4.87,4.53,7.22-.51,3.18-3,6.71-5.7,9-6.38,5.37-17.12,5.21-19.3,15.77-.17.51-2.35,1-3.52.84-.5,0-1.34-1.51-1.34-2.35a39.75,39.75,0,0,1,.84-10.9,4.86,4.86,0,0,1,.16-1.51,3.5,3.5,0,0,1-1.84,1.51m42.78-125.82c18.95-4.53,36.57-1.68,52.67,6.88,15.61,8.22,31.71,16.6,45.47,27.51,12.08,9.73,19.63,23.82,22.65,39.76.5,2.68,1.17,5.2,1.67,7.71,1.35,8.56-5.37,16.28-13.25,15.27-8.39-1-14.09,2.18-19.46,8.22-10.23,11.58-24.49,17-37.74,24a216.15,216.15,0,0,0-27.35,16.78c-13.93,10.06-27.35,20.8-40.43,31.87-4.36,3.7-6.88,9.57-10.91,13.76-4.69,4.7-9.73,9.73-15.6,12.58-5.7,2.85-16.94-6.37-19.79-14.59-5.88-16.61-2.52-31.71,4.19-47.48,10.06-24.16,25-45.13,38.25-67.27,8.05-13.26,12.08-29,17.45-43.79.33-1-1.85-3.19-3.19-4.36-3.19-2.68-8.56-4.7-9.39-8.05-1.51-6.21,2-11.91,7.71-15.44a56.78,56.78,0,0,1,7.05-3.35" transform="translate(-88.45 -76.76)"/></svg>